<svg xmlns="http://www.w3.org/2000/svg" xmlns:xlink="http://www.w3.org/1999/xlink" id="Capa_1" x="0px" y="0px" viewBox="0 0 215.9 355.3" style="enable-background:new 0 0 215.9 355.3;" xml:space="preserve"><style type="text/css">	.st0{fill:none;}	.st1{fill:none;stroke:#FFFFFF;}	.st2{fill:#FFFFFF;}	.st3{fill-rule:evenodd;clip-rule:evenodd;fill:#FFFFFF;}	.st4{enable-background:new    ;}</style><g>	<g id="Rect&#xE1;ngulo_17_00000095337462000335185950000017912431582269229743_">		<path class="st0" d="M21.9,1.2h172.2c11.4,0,20.7,9.3,20.7,20.7v311.4c0,11.4-9.3,20.7-20.7,20.7H21.9c-11.4,0-20.7-9.3-20.7-20.7   V21.9C1.2,10.5,10.4,1.2,21.9,1.2z"></path>		<path class="st1" d="M21.9,1.8h172.2c11.1,0,20.1,9,20.1,20.1v311.4c0,11.1-9,20.1-20.1,20.1H21.9c-11.1,0-20.1-9-20.1-20.1V21.9   C1.8,10.9,10.7,1.8,21.9,1.8z"></path>	</g>	<g>		<polygon class="st2" points="63.5,317.4 67,317.4 65.3,313.2   "></polygon>		<path class="st2" d="M134.4,314.1c0-0.9-0.7-1.4-2-1.4h-2.5v2.6h2.5C133.7,315.5,134.4,315.1,134.4,314.1z"></path>		<path class="st2" d="M79.6,312.9h-2.3v6.7h2.3c2.2,0,3.6-1.3,3.6-3.3C83.2,314.2,81.8,312.9,79.6,312.9z"></path>		<path class="st2" d="M132.8,316.9h-2.9v2.8h2.9c1.4,0,2.1-0.5,2.1-1.4S134.2,316.9,132.8,316.9z"></path>		<path class="st2" d="M142.5,312.9h-2.1v3.8h2.1c1.6,0,2.4-0.7,2.4-2S144.1,312.9,142.5,312.9z"></path>		<polygon class="st2" points="36.8,317.4 40.4,317.4 38.5,313.2   "></polygon>	</g>	<g id="Grupo_27_00000075163646824884836170000006417411925302746010_" transform="translate(1580.558 -1808.78)">		<path id="Trazado_233_00000153675975829026368930000003272853365366567603_" class="st2" d="M-1517.2,1887.6   c-0.2,0.1-0.3,0.2-0.6,0.2c-0.2,0.1-0.6,0.1-0.8,0.2c-0.3,0.1-0.6,0.1-0.9,0.1c-0.7,0-1.3-0.1-1.8-0.3c-0.6-0.2-1-0.6-1.5-1   c-0.5-0.5-0.8-1-0.9-1.7c-0.2-0.7-0.3-1.5-0.3-2.3c0-0.8,0.1-1.5,0.3-2.3c0.2-0.6,0.6-1.1,1-1.7c0.5-0.5,0.9-0.8,1.5-1   c0.6-0.2,1.3-0.3,2-0.3c0.6,0,1,0.1,1.6,0.2c0.5,0.1,0.8,0.2,1.3,0.5c-0.1,0.2-0.1,0.3-0.1,0.6s-0.1,0.5-0.1,0.6h-0.1   c-0.1-0.1-0.2-0.2-0.3-0.3c-0.1-0.1-0.3-0.3-0.6-0.5c-0.2-0.1-0.5-0.2-0.7-0.3s-0.6-0.1-0.8-0.1c-0.5,0-0.9,0.1-1.4,0.3   c-0.5,0.2-0.8,0.5-1.1,0.9c-0.3,0.5-0.6,0.9-0.8,1.5c-0.2,0.7-0.2,1.5-0.2,2.2s0.1,1.5,0.2,2.2c0.1,0.6,0.5,1,0.8,1.5   c0.3,0.3,0.7,0.7,1.1,0.9c0.5,0.2,0.9,0.3,1.4,0.3c0.3,0,0.6,0,0.9-0.1c0.2-0.1,0.5-0.2,0.7-0.3s0.5-0.2,0.6-0.5   c0.2-0.1,0.3-0.2,0.5-0.3v0.1l-0.1,0.9C-1516.8,1887.5-1517,1887.6-1517.2,1887.6"></path>		<path id="Trazado_234_00000162316531842909495380000005343318952202409869_" class="st2" d="M-1515.3,1882.8   c0.1-0.5,0.5-0.8,0.7-1.1c0.3-0.2,0.7-0.5,1-0.7c0.3-0.1,0.7-0.2,1.1-0.2c0.3,0,0.8,0.1,1.1,0.2c0.3,0.1,0.7,0.3,1,0.7   c0.3,0.3,0.6,0.7,0.7,1.1c0.2,0.6,0.3,1.1,0.2,1.7c0,0.6-0.1,1.1-0.2,1.7c-0.1,0.5-0.5,0.8-0.7,1.1c-0.2,0.2-0.6,0.5-1,0.6   c-0.3,0.1-0.7,0.2-1.1,0.2c-0.3,0-0.8-0.1-1.1-0.2c-0.3-0.1-0.7-0.3-1-0.6c-0.3-0.3-0.6-0.7-0.7-1.1c-0.2-0.6-0.2-1.1-0.2-1.7   C-1515.7,1883.9-1515.5,1883.3-1515.3,1882.8 M-1514.4,1885.7c0,0.3,0.1,0.7,0.3,1c0.1,0.3,0.3,0.6,0.6,0.7   c0.2,0.2,0.6,0.2,0.9,0.2c0.3,0,0.7-0.1,0.9-0.2c0.2-0.2,0.5-0.5,0.6-0.7c0.1-0.3,0.2-0.7,0.3-1c0.1-0.5,0.1-0.8,0.1-1.3   s0-0.8-0.1-1.3c0-0.3-0.1-0.7-0.3-1c-0.1-0.3-0.3-0.6-0.6-0.7c-0.2-0.2-0.6-0.2-0.9-0.2c-0.3,0-0.7,0.1-0.9,0.2   c-0.2,0.2-0.5,0.5-0.6,0.7c-0.1,0.3-0.2,0.7-0.3,1c-0.1,0.3-0.1,0.8-0.1,1.3S-1514.5,1885.4-1514.4,1885.7"></path>		<path id="Trazado_235_00000050664784382272323550000006926318564239663029_" class="st2" d="M-1508,1882.3c0-0.5,0-0.9-0.1-1.4   c0.2,0,0.3,0.1,0.6,0.1c0.1,0,0.1,0,0.2,0c0.1,0,0.2,0,0.2,0c0,0.3,0,0.8,0,1.3l0,0c0.3-0.8,1-1.4,2-1.4c0.2,0,0.5,0,0.6,0.1   c0.2,0.1,0.3,0.2,0.6,0.3c0.1,0.1,0.3,0.2,0.5,0.5c0.1,0.2,0.2,0.3,0.2,0.6l0,0c0.2-0.5,0.5-0.8,0.8-1.1c0.3-0.2,0.8-0.3,1.3-0.3   c0.2,0,0.6,0,0.8,0.1c0.2,0.1,0.5,0.2,0.6,0.5c0.2,0.2,0.3,0.5,0.5,0.8c0.1,0.3,0.1,0.7,0.1,1c0,0.1,0,0.3,0,0.6s0,0.5,0,0.7   s0,0.6,0,0.9c0,0.3,0,0.7,0,1.1c0,0.2,0,0.6,0,0.8s0,0.6,0,0.8c-0.1,0-0.2,0-0.3,0h-0.6c-0.1,0-0.2,0-0.2,0c0-0.2,0-0.8,0.1-1.5   c0.1-0.7,0-1.8,0-3.2c0-0.2,0-0.5-0.1-0.7c0-0.2-0.1-0.3-0.2-0.6c-0.1-0.1-0.2-0.3-0.5-0.3c-0.2-0.1-0.5-0.1-0.7-0.1   s-0.6,0.1-0.8,0.2c-0.2,0.1-0.3,0.3-0.5,0.5c-0.1,0.1-0.1,0.2-0.1,0.3s-0.1,0.3-0.1,0.5c0,0.2,0,0.6,0,0.9c0,0.3,0,0.9,0,1.7   c0,0.5,0,0.8,0,1.1s0,0.8,0,1.1c-0.2,0-0.3,0-0.6,0s-0.3,0-0.6,0c0-0.6,0.1-1.1,0.1-1.7c0-0.6,0-1.1,0-1.7c0-0.5,0-0.8,0-1.1   s0-0.5,0-0.6c0-0.1,0-0.2-0.1-0.3c0-0.1-0.1-0.2-0.1-0.3c-0.1-0.2-0.2-0.3-0.5-0.5c-0.2-0.1-0.3-0.2-0.6-0.2c-0.5,0-1,0.2-1.3,0.7   c-0.3,0.6-0.5,1.1-0.5,1.8v1.3c0,0.5,0,0.9,0,1.4s0,0.9,0.1,1.4c-0.2,0-0.3,0-0.6,0s-0.3,0-0.6,0c0-0.5,0.1-0.9,0.1-1.4   c0-0.5,0-0.9,0-1.4v-1.6C-1508,1883.3-1508,1882.8-1508,1882.3"></path>		<path id="Trazado_236_00000149377306910348743150000012235162306643703190_" class="st2" d="M-1496.8,1877.8   c0.1-0.1,0.2-0.2,0.5-0.2c0.2,0,0.3,0.1,0.5,0.2c0.1,0.1,0.2,0.3,0.2,0.6s-0.1,0.3-0.2,0.6c-0.1,0.1-0.2,0.2-0.5,0.2   c-0.2,0-0.3-0.1-0.5-0.2c-0.1-0.1-0.2-0.3-0.2-0.6C-1497.1,1878.1-1496.9,1877.9-1496.8,1877.8 M-1496.8,1882.4   c0-0.5,0-0.9-0.1-1.4c0.2,0,0.3,0.1,0.6,0.1s0.3,0,0.6-0.1c0,0.5-0.1,0.9-0.1,1.4s0,0.9,0,1.4v1.6c0,0.5,0,0.9,0,1.4   c0,0.5,0,0.9,0.1,1.4c-0.2,0-0.3,0-0.6,0s-0.3,0-0.6,0c0-0.3,0.1-0.8,0.1-1.4c0-0.6,0-0.9,0-1.4v-1.6   C-1496.8,1883.3-1496.8,1882.8-1496.8,1882.4"></path>		<path id="Trazado_237_00000096055566260493778820000006324224460134269070_" class="st2" d="M-1493.5,1887   c0.1,0.1,0.2,0.2,0.3,0.3c0.1,0.1,0.2,0.2,0.5,0.2c0.1,0.1,0.3,0.1,0.5,0.1s0.3,0,0.5-0.1c0.1,0,0.2-0.1,0.3-0.2   c0.1-0.1,0.2-0.2,0.2-0.5c0.1-0.2,0.1-0.3,0.1-0.6s-0.1-0.5-0.2-0.7c-0.1-0.1-0.3-0.3-0.6-0.5c-0.2-0.1-0.5-0.2-0.8-0.2   c-0.2-0.1-0.5-0.2-0.7-0.3c-0.2-0.1-0.5-0.3-0.6-0.6c-0.1-0.3-0.2-0.7-0.2-1c0-0.3,0-0.6,0.1-0.9c0.1-0.2,0.2-0.5,0.5-0.7   c0.2-0.2,0.5-0.3,0.7-0.5c0.3-0.1,0.6-0.1,0.9-0.1c0.2,0,0.6,0,0.8,0.1c0.2,0.1,0.5,0.2,0.6,0.2c-0.1,0.2-0.1,0.3-0.2,0.6   c0,0.1-0.1,0.3-0.1,0.5h-0.1c-0.1-0.2-0.2-0.5-0.3-0.7c-0.2-0.2-0.5-0.3-0.7-0.3c-0.1,0-0.2,0-0.3,0.1c-0.1,0.1-0.2,0.1-0.3,0.2   c-0.1,0.1-0.2,0.2-0.2,0.3c-0.1,0.2-0.1,0.3-0.1,0.6c0,0.2,0.1,0.6,0.2,0.8c0.1,0.2,0.3,0.3,0.6,0.5s0.5,0.2,0.7,0.2   c0.2,0.1,0.5,0.2,0.7,0.3c0.2,0.1,0.5,0.3,0.6,0.6c0.1,0.3,0.2,0.7,0.2,1c0,0.3,0,0.6-0.1,0.8c-0.1,0.2-0.2,0.6-0.5,0.8   c-0.2,0.2-0.5,0.5-0.7,0.6c-0.3,0.1-0.7,0.2-0.9,0.2c-0.3,0-0.7,0-1-0.1c-0.2-0.1-0.5-0.2-0.7-0.3c0.1-0.2,0.1-0.3,0.1-0.6   s0.1-0.3,0.1-0.6h0.1C-1493.6,1886.7-1493.5,1886.8-1493.5,1887"></path>		<path id="Trazado_238_00000021082845898026499970000005901202430823391165_" class="st2" d="M-1488.2,1877.8   c0.1-0.1,0.2-0.2,0.5-0.2c0.2,0,0.3,0.1,0.5,0.2c0.1,0.1,0.2,0.3,0.2,0.6s-0.1,0.3-0.2,0.6c-0.1,0.1-0.2,0.2-0.5,0.2   c-0.2,0-0.3-0.1-0.5-0.2c-0.1-0.1-0.2-0.3-0.2-0.6C-1488.4,1878.1-1488.3,1877.9-1488.2,1877.8 M-1488.3,1882.4   c0-0.5,0-0.9-0.1-1.4c0.2,0,0.3,0.1,0.6,0.1s0.3,0,0.6-0.1c0,0.5-0.1,0.9-0.1,1.4s0,0.9,0,1.4v1.6c0,0.5,0,0.9,0,1.4   c0,0.5,0,0.9,0.1,1.4c-0.2,0-0.3,0-0.6,0s-0.3,0-0.6,0c0-0.3,0.1-0.8,0.1-1.4c0-0.6,0-0.9,0-1.4v-1.6   C-1488.2,1883.3-1488.2,1882.8-1488.3,1882.4"></path>		<path id="Trazado_239_00000001653982158086581710000009846307080505431177_" class="st2" d="M-1485.2,1882.8   c0.1-0.5,0.5-0.8,0.7-1.1c0.3-0.2,0.7-0.5,1-0.7c0.3-0.1,0.7-0.2,1.1-0.2c0.3,0,0.8,0.1,1.1,0.2c0.3,0.1,0.7,0.3,1,0.7   c0.3,0.3,0.6,0.7,0.7,1.1c0.2,0.6,0.3,1.1,0.2,1.7c0,0.6-0.1,1.1-0.2,1.7c-0.1,0.5-0.5,0.8-0.7,1.1c-0.2,0.2-0.6,0.5-1,0.6   c-0.3,0.1-0.7,0.2-1.1,0.2c-0.3,0-0.8-0.1-1.1-0.2c-0.3-0.1-0.7-0.3-1-0.6c-0.3-0.3-0.6-0.7-0.7-1.1c-0.2-0.6-0.3-1.1-0.2-1.7   C-1485.6,1883.9-1485.5,1883.3-1485.2,1882.8 M-1484.3,1885.7c0,0.3,0.1,0.7,0.3,1c0.1,0.3,0.3,0.6,0.6,0.7   c0.2,0.2,0.6,0.2,0.9,0.2c0.3,0,0.7-0.1,0.9-0.2c0.2-0.2,0.5-0.5,0.6-0.7c0.1-0.3,0.3-0.7,0.3-1c0.1-0.5,0.1-0.8,0.1-1.3   s0-0.8-0.1-1.3c0-0.3-0.1-0.7-0.3-1c-0.1-0.3-0.3-0.6-0.6-0.7c-0.2-0.2-0.6-0.3-0.9-0.2c-0.3,0-0.7,0.1-0.9,0.2   c-0.2,0.2-0.5,0.5-0.6,0.7c-0.1,0.3-0.2,0.7-0.3,1c-0.1,0.5-0.1,0.8-0.1,1.3C-1484.4,1884.9-1484.4,1885.4-1484.3,1885.7    M-1480.9,1877c0.1,0,0.2,0,0.2,0.1c0.1,0.1,0.1,0.2,0.1,0.3c0,0.1,0,0.3-0.1,0.5c-0.1,0.1-0.2,0.2-0.3,0.2l-2,1.4h-0.6l2-2.2   C-1481.2,1877.2-1481.1,1877.1-1480.9,1877"></path>		<path id="Trazado_240_00000025411702572639910740000000611329377025542303_" class="st2" d="M-1474,1882.1c-0.2-0.3-0.6-0.6-1-0.6   c-0.6,0-1,0.2-1.4,0.7c-0.3,0.6-0.5,1.1-0.5,1.8v1.3c0,0.5,0,0.9,0,1.4c0,0.5,0,0.9,0.1,1.4c-0.2,0-0.3,0-0.6,0s-0.3,0-0.6,0   c0-0.3,0.1-0.8,0.1-1.4c0-0.6,0-0.9,0-1.4v-1.6c0-0.5,0-0.9,0-1.4c0-0.5,0-0.9-0.1-1.4c0.2,0,0.3,0.1,0.6,0.1c0.1,0,0.1,0,0.2,0   c0.1,0,0.2,0,0.3,0c0,0.3,0,0.8,0,1.3l0,0c0.2-0.3,0.5-0.7,0.8-1c0.3-0.2,0.8-0.3,1.3-0.3c0.2,0,0.5,0,0.7,0.1   c0.2,0.1,0.5,0.2,0.7,0.5c0.2,0.2,0.3,0.5,0.5,0.8c0.1,0.5,0.2,0.8,0.2,1.3s0,0.9,0,1.4s0,0.9,0,1.5v0.9c0,0.1,0,0.3,0,0.5   c0,0.1,0,0.3,0,0.5c-0.2,0-0.3,0-0.6,0s-0.3,0-0.6,0c0-0.6,0-1,0.1-1.6c0.1-0.6,0-1.1,0-1.7v-0.9   C-1473.6,1883.3-1473.7,1882.6-1474,1882.1"></path>		<path id="Trazado_241_00000018955493913779337070000012427710807306478992_" class="st2" d="M-1462.7,1884.2   c-1.1-1.4-2.3-2.8-3.3-4.1c0,0.2,0,0.7,0,1.1s0,1.1,0,2c0,0.2,0,0.5,0,0.8c0,0.3,0,0.7,0,0.9s0,0.7,0,1c0,0.3,0,0.7,0,0.9   s0,0.6,0,0.8s0,0.3,0,0.5c-0.1,0-0.3,0-0.5,0c-0.1,0-0.3,0-0.5,0c0-0.1,0-0.3,0-0.6s0-0.6,0.1-0.9c0.1-0.3,0-0.8,0.1-1.3   c0.1-0.5,0-0.9,0-1.4s0-0.9,0-1.3c0-0.3,0-0.8,0-1.1c0-0.9,0-1.8,0-2.5s0-1.3,0-1.5h0.2l1.7,2.1c0.6,0.8,1.1,1.5,1.7,2.3   c0.6,0.8,1.1,1.4,1.7,2.1c0.6,0.7,1,1.3,1.4,1.7v-2.1c0-1,0-2.1,0-3.1c0-1,0-2-0.1-2.9c0.1,0,0.3,0.1,0.5,0.1c0.1,0,0.2,0,0.5-0.1   c0,0.2,0,0.6-0.1,1c0,0.5,0,0.9-0.1,1.4c0,0.5,0,1-0.1,1.5c-0.1,0.5,0,0.9,0,1.1v2c0,0.3,0,0.7,0,1.1s0,0.7,0,1c0,0.3,0,0.6,0,0.8   v0.5h-0.2C-1460.5,1887-1461.6,1885.6-1462.7,1884.2"></path>		<path id="Trazado_242_00000014619414680697165900000015400527830209928123_" class="st2" d="M-1455.9,1881c0.3-0.1,0.7-0.2,1-0.2   c0.3,0,0.6,0,0.8,0.1c0.2,0.1,0.5,0.2,0.7,0.5c0.2,0.2,0.3,0.5,0.5,0.7s0.1,0.6,0.1,0.9c0,0.6,0,1.1,0,1.7c0,0.6,0,1.1,0,1.8   c0,0.1,0,0.2,0,0.3s0,0.2,0,0.3c0,0.1,0.1,0.2,0.1,0.2c0.1,0.1,0.2,0.1,0.3,0.1h0.1h0.1v0.3c-0.1,0.1-0.2,0.1-0.3,0.1   c-0.1,0-0.3,0-0.5,0c-0.2,0-0.5-0.1-0.7-0.2c-0.1-0.2-0.2-0.5-0.2-0.7c-0.2,0.3-0.6,0.6-0.9,0.8c-0.3,0.2-0.7,0.2-1.1,0.2   c-0.2,0-0.5,0-0.7-0.1c-0.2-0.1-0.3-0.2-0.6-0.3c-0.1-0.1-0.3-0.3-0.3-0.6c-0.1-0.2-0.1-0.5-0.1-0.8c0-0.5,0.1-1,0.5-1.4   c0.3-0.3,0.8-0.6,1.4-0.7c0.5-0.1,0.8-0.1,1-0.2c0.2,0,0.3-0.1,0.6-0.2c0.1,0,0.2-0.1,0.2-0.2s0-0.2,0-0.3c0-0.2,0-0.5-0.1-0.7   c0-0.2-0.1-0.5-0.2-0.6c-0.1-0.1-0.2-0.3-0.5-0.3c-0.2-0.1-0.5-0.2-0.7-0.1c-0.3,0-0.7,0.1-0.9,0.2c-0.3,0.2-0.6,0.5-0.7,0.8h-0.1   v-0.8C-1456.6,1881.3-1456.3,1881.1-1455.9,1881 M-1454.2,1884.4c-0.2,0-0.3,0.1-0.6,0.1s-0.3,0.1-0.6,0.2   c-0.2,0.1-0.3,0.1-0.5,0.2c-0.1,0.1-0.2,0.2-0.3,0.5c-0.1,0.2-0.1,0.5-0.1,0.7c0,0.3,0.1,0.8,0.3,1c0.2,0.2,0.5,0.3,0.8,0.3   c0.3,0,0.7-0.1,0.9-0.3c0.2-0.2,0.5-0.5,0.6-0.8v-2.3C-1454,1884.4-1454.1,1884.4-1454.2,1884.4"></path>		<path id="Trazado_243_00000150790191637155719200000001724016992520586138_" class="st2" d="M-1450.8,1882.8   c0.1-0.5,0.5-0.8,0.7-1.1c0.3-0.3,0.7-0.6,1-0.7c0.3-0.1,0.8-0.2,1.1-0.2c0.5,0,0.8,0.1,1.3,0.2c0.3,0.1,0.6,0.2,0.8,0.5   c0,0.1-0.1,0.3-0.1,0.5c0,0.1-0.1,0.3-0.1,0.5h-0.1c-0.1-0.1-0.1-0.2-0.2-0.3c-0.1-0.1-0.2-0.2-0.3-0.3c-0.1-0.1-0.3-0.2-0.5-0.3   c-0.2-0.1-0.3-0.1-0.6-0.1c-0.3,0-0.7,0.1-1,0.2c-0.3,0.1-0.6,0.3-0.7,0.7c-0.2,0.3-0.3,0.7-0.3,1c-0.1,0.5-0.1,0.8-0.1,1.3   c0,0.8,0.1,1.6,0.6,2.3c0.3,0.6,1,0.8,1.6,0.8c0.2,0,0.3,0,0.6-0.1c0.2,0,0.3-0.1,0.6-0.2c0.1-0.1,0.3-0.2,0.5-0.3   c0.1-0.1,0.2-0.2,0.3-0.5l0,0c0,0.2-0.1,0.5-0.1,0.7c-0.3,0.2-0.6,0.5-0.9,0.6c-0.3,0.1-0.8,0.2-1.1,0.2c-0.3,0-0.8-0.1-1.1-0.2   c-0.3-0.1-0.7-0.3-1-0.7s-0.6-0.7-0.7-1.1c-0.2-0.6-0.3-1.1-0.2-1.7C-1451,1884-1451,1883.4-1450.8,1882.8"></path>		<path id="Trazado_244_00000158002140512911527030000015780415922566786223_" class="st2" d="M-1443.8,1877.8   c0.1-0.1,0.2-0.2,0.5-0.2c0.2,0,0.3,0.1,0.5,0.2c0.1,0.1,0.2,0.3,0.2,0.6s-0.1,0.3-0.2,0.6c-0.1,0.1-0.2,0.2-0.5,0.2   c-0.2,0-0.3-0.1-0.5-0.2c-0.1-0.1-0.2-0.3-0.2-0.6C-1444,1878.1-1444,1877.9-1443.8,1877.8 M-1443.9,1882.4c0-0.5,0-0.9-0.1-1.4   c0.2,0,0.3,0.1,0.6,0.1s0.3,0,0.6-0.1c0,0.5-0.1,0.9-0.1,1.4s0,0.9,0,1.4v1.6c0,0.5,0,0.9,0,1.4c0,0.5,0,0.9,0.1,1.4   c-0.2,0-0.3,0-0.6,0s-0.3,0-0.6,0c0-0.3,0.1-0.8,0.1-1.4c0-0.6,0-0.9,0-1.4v-1.6C-1443.9,1883.3-1443.9,1882.8-1443.9,1882.4"></path>		<path id="Trazado_245_00000069394660614038526190000004553038034510976144_" class="st2" d="M-1440.9,1882.8   c0.1-0.5,0.5-0.8,0.7-1.1c0.2-0.2,0.6-0.5,1-0.7c0.3-0.1,0.7-0.2,1.1-0.2c0.3,0,0.8,0.1,1.1,0.2c0.3,0.1,0.7,0.3,1,0.7   c0.3,0.3,0.6,0.7,0.7,1.1c0.2,0.6,0.3,1.1,0.2,1.7c0,0.6-0.1,1.1-0.2,1.7c-0.1,0.5-0.5,0.8-0.7,1.1c-0.2,0.2-0.6,0.5-1,0.6   c-0.3,0.1-0.7,0.2-1.1,0.2c-0.3,0-0.8-0.1-1.1-0.2c-0.3-0.1-0.7-0.3-1-0.6c-0.3-0.3-0.6-0.7-0.7-1.1c-0.2-0.6-0.2-1.1-0.2-1.7   C-1441.1,1883.9-1441,1883.3-1440.9,1882.8 M-1439.9,1885.7c0,0.3,0.1,0.7,0.3,1c0.1,0.3,0.3,0.6,0.6,0.7c0.2,0.2,0.6,0.2,0.9,0.2   c0.3,0,0.7-0.1,0.9-0.2c0.2-0.2,0.5-0.5,0.6-0.7c0.1-0.3,0.2-0.7,0.3-1c0.1-0.5,0.1-0.8,0.1-1.3s0-0.8-0.1-1.3   c0-0.3-0.1-0.7-0.3-1c-0.1-0.3-0.3-0.6-0.6-0.7c-0.2-0.2-0.6-0.2-0.9-0.2c-0.3,0-0.7,0.1-0.9,0.2c-0.2,0.2-0.5,0.5-0.6,0.7   c-0.1,0.3-0.2,0.7-0.3,1c-0.1,0.3-0.1,0.8-0.1,1.3S-1440,1885.4-1439.9,1885.7"></path>		<path id="Trazado_246_00000177484673609077771040000008354451042162516360_" class="st2" d="M-1429.7,1882.1   c-0.2-0.3-0.6-0.6-1-0.6c-0.6,0-1,0.2-1.4,0.7c-0.3,0.6-0.5,1.1-0.5,1.8v1.3c0,0.5,0,0.9,0,1.4c0,0.5,0,0.9,0.1,1.4   c-0.2,0-0.3,0-0.6,0s-0.3,0-0.6,0c0-0.3,0.1-0.8,0.1-1.4c0-0.6,0-0.9,0-1.4v-1.6c0-0.5,0-0.9,0-1.4c0-0.5,0-0.9-0.1-1.4   c0.2,0,0.3,0.1,0.6,0.1c0.1,0,0.1,0,0.2,0h0.3c0,0.3,0,0.8,0,1.3l0,0c0.2-0.3,0.5-0.7,0.9-1c0.3-0.2,0.8-0.3,1.1-0.3   c0.2,0,0.5,0,0.7,0.1c0.2,0.1,0.5,0.2,0.7,0.5c0.2,0.2,0.3,0.5,0.5,0.8c0.1,0.5,0.2,0.8,0.2,1.3s0,0.9,0,1.4s0,0.9,0,1.5v1.5   c0,0.1,0,0.3,0,0.5c-0.2,0-0.3,0-0.6,0s-0.3,0-0.6,0c0-0.6,0-1,0.1-1.6c0.1-0.6,0-1.1,0-1.7v-0.9   C-1429.2,1883.3-1429.3,1882.6-1429.7,1882.1"></path>		<path id="Trazado_247_00000159453656154069949590000014349963960980591003_" class="st2" d="M-1425.1,1881c0.3-0.1,0.7-0.2,1-0.2   c0.3,0,0.6,0,0.8,0.1c0.2,0.1,0.5,0.2,0.7,0.5c0.2,0.2,0.3,0.5,0.5,0.7c0.1,0.2,0.1,0.6,0.1,0.9c0,0.6,0,1.1,0,1.7   c0,0.6,0,1.1,0,1.8c0,0.1,0,0.2,0,0.3s0,0.2,0,0.3c0,0.1,0.1,0.2,0.1,0.2c0.1,0.1,0.2,0.1,0.3,0.1h0.1h0.1v0.3   c-0.1,0.1-0.2,0.1-0.3,0.1s-0.3,0-0.5,0c-0.2,0-0.5-0.1-0.6-0.2c-0.1-0.2-0.2-0.5-0.2-0.7c-0.2,0.3-0.6,0.6-0.9,0.8   c-0.3,0.2-0.7,0.2-1.1,0.2c-0.2,0-0.5,0-0.6-0.1c-0.2-0.1-0.3-0.2-0.6-0.3c-0.1-0.1-0.3-0.3-0.3-0.6c-0.1-0.2-0.1-0.5-0.1-0.8   c0-0.5,0.1-1,0.5-1.4c0.3-0.3,0.8-0.6,1.4-0.7c0.3,0,0.7-0.1,1-0.2c0.2,0,0.3-0.1,0.6-0.2c0.1,0,0.2-0.1,0.2-0.2s0-0.2,0-0.3   c0-0.2,0-0.5-0.1-0.7c0-0.2-0.1-0.5-0.2-0.6c-0.1-0.1-0.2-0.3-0.5-0.3c-0.2-0.1-0.5-0.2-0.7-0.1c-0.3,0-0.7,0.1-0.9,0.2   c-0.3,0.2-0.6,0.5-0.7,0.8h-0.1v-0.8C-1425.9,1881.3-1425.5,1881.1-1425.1,1881 M-1423.5,1884.4c-0.2,0-0.3,0.1-0.6,0.1   s-0.3,0.1-0.6,0.2s-0.3,0.1-0.5,0.2c-0.1,0.1-0.2,0.2-0.3,0.5c-0.1,0.2-0.1,0.5-0.1,0.7c0,0.3,0.1,0.8,0.3,1   c0.2,0.2,0.5,0.3,0.8,0.3s0.7-0.1,0.9-0.3c0.2-0.2,0.5-0.5,0.6-0.8l0.1-2.3C-1423.1,1884.4-1423.3,1884.4-1423.5,1884.4"></path>		<path id="Trazado_248_00000021818106410987001980000016357187629063930518_" class="st2" d="M-1419.5,1880c0-0.3,0-0.8,0-1.1   s0-0.8,0-1.1s0-0.7,0-0.9c0.2,0,0.3,0.1,0.6,0.1s0.3,0,0.6-0.1c0,0.2,0,0.6,0,0.9s0,0.7,0,1.1s0,0.8,0,1.1s0,0.8,0,1.1v2.8   c0,0.3,0,0.7,0,1.1s0,0.8,0,1.1c0,0.3,0,0.8,0,1.1c0,0.3,0,0.7,0,0.9c-0.2,0-0.3,0-0.6,0s-0.3,0-0.6,0c0-0.2,0-0.6,0-0.9   c0-0.3,0-0.7,0-1.1s0-0.8,0-1.1c0-0.3,0-0.8,0-1.1v-2.8C-1419.4,1880.8-1419.5,1880.3-1419.5,1880"></path>		<path id="Trazado_249_00000171684660250330208930000015519550991875776684_" class="st2" d="M-1509.5,1899.6   c-0.1,0.2-0.2,0.3-0.2,0.6c-0.1,0.2-0.2,0.3-0.5,0.5c-0.2,0.1-0.3,0.3-0.6,0.3c-0.2,0.1-0.6,0.1-0.8,0.1c-0.3,0-0.7-0.1-0.9-0.2   c-0.3-0.1-0.6-0.3-0.8-0.7s-0.5-0.7-0.6-1.1c-0.1-0.6-0.2-1.1-0.2-1.7c0-0.6,0.1-1.1,0.2-1.6c0.1-0.5,0.3-0.8,0.7-1.1   c0.2-0.3,0.6-0.6,0.9-0.7c0.3-0.1,0.7-0.2,1-0.2c0.9,0,1.7,0.6,2,1.5l0,0v-1.5c0-0.3,0-0.8,0-1.1s0-0.8,0-1.1s0-0.7,0-1   c0-0.3,0-0.6,0-0.8c0.1,0,0.2,0,0.3,0s0.2,0,0.3,0c0.1,0,0.2,0,0.2,0c0.1,0,0.2,0,0.3,0c0,0.3,0,0.8-0.1,1.4c-0.1,0.6,0,1.3,0,2.1   s0,1.5,0,2.3s0,1.5,0,2.1c0,0.7,0,1.3,0,1.8c0,0.6,0,1.1,0,1.7c-0.1,0-0.3,0-0.5,0c-0.1,0-0.3,0-0.5,0L-1509.5,1899.6   L-1509.5,1899.6z M-1512.9,1899.1c0.1,0.3,0.2,0.7,0.5,0.9c0.1,0.2,0.3,0.3,0.6,0.5c0.2,0.1,0.5,0.1,0.7,0.1   c0.3,0,0.6-0.1,0.9-0.3c0.2-0.2,0.5-0.5,0.6-0.8c0.2-0.3,0.3-0.7,0.3-1c0.1-0.3,0.1-0.8,0.1-1.3c0-0.8-0.1-1.5-0.5-2.2   c-0.2-0.5-0.8-0.8-1.4-0.8c-0.3,0-0.6,0.1-0.8,0.2c-0.2,0.2-0.5,0.5-0.6,0.7c-0.1,0.3-0.2,0.7-0.3,1c-0.1,0.5-0.1,0.8-0.1,1.3   C-1513.1,1898.1-1513,1898.7-1512.9,1899.1"></path>		<path id="Trazado_250_00000151531447236327440500000014191830572050599325_" class="st2" d="M-1506.4,1894.9   c0.5-0.7,1.4-1.1,2.2-1c0.5,0,0.8,0.1,1.1,0.2c0.3,0.1,0.6,0.3,0.8,0.7s0.3,0.6,0.5,0.9c0.1,0.3,0.1,0.8,0.1,1.1   c0,0.1,0,0.2,0,0.3c0,0.1,0,0.2,0,0.3c-0.5,0-0.9,0-1.4,0s-0.9,0-1.4,0c-0.2,0-0.6,0-0.8,0s-0.6,0-0.8,0c0,0,0,0.1,0,0.2v0.2   c0,0.3,0,0.8,0.1,1.1c0.1,0.3,0.2,0.6,0.5,0.9c0.2,0.2,0.5,0.5,0.7,0.6c0.3,0.1,0.6,0.2,0.9,0.2c0.2,0,0.3,0,0.6-0.1   c0.2,0,0.3-0.1,0.6-0.2c0.1-0.1,0.3-0.2,0.5-0.3c0.1-0.1,0.2-0.2,0.3-0.5l0,0l-0.1,0.7c-0.2,0.2-0.6,0.5-0.9,0.6   c-0.3,0.2-0.8,0.2-1.1,0.2c-0.5,0-0.9-0.1-1.3-0.2c-0.3-0.1-0.7-0.5-1-0.7c-0.2-0.3-0.5-0.7-0.7-1.1c-0.1-0.5-0.2-0.9-0.2-1.4   C-1507.2,1896.7-1506.9,1895.7-1506.4,1894.9 M-1505,1894.5c-0.2,0.1-0.5,0.3-0.6,0.7c-0.1,0.2-0.2,0.6-0.3,0.8   c-0.1,0.2-0.1,0.6-0.1,0.9c0.2,0,0.6,0,0.8,0s0.6,0,0.8,0c0.3,0,0.6,0,0.9,0c0.3,0,0.6,0,0.8,0c0-0.2,0-0.6-0.1-0.8   c0-0.3-0.1-0.6-0.2-0.8c-0.1-0.2-0.2-0.5-0.5-0.7c-0.2-0.2-0.6-0.2-0.8-0.2C-1504.4,1894.3-1504.8,1894.3-1505,1894.5"></path>		<path id="Trazado_251_00000097463755775336321620000000564712218928868236_" class="st2" d="M-1489.7,1901.1c-0.1,0-0.2,0-0.3,0   h-0.7c-0.1,0-0.2,0-0.3,0c-0.1-0.2-0.1-0.5-0.2-0.8c-0.1-0.3-0.2-0.7-0.3-1c-0.1-0.3-0.2-0.7-0.3-1c-0.1-0.3-0.2-0.7-0.3-1   c-0.2,0-0.6,0-0.8,0s-0.6,0-0.8,0s-0.5,0-0.8,0c-0.3,0-0.5,0-0.8,0c-0.2,0.8-0.6,1.5-0.7,2.2c-0.2,0.7-0.5,1.3-0.5,1.7   c-0.1,0-0.3,0-0.5,0c-0.1,0-0.3,0-0.5,0c0.7-1.7,1.4-3.4,2.1-5.3s1.3-3.4,2-5.3h0.2c0.2,0.6,0.5,1.3,0.7,2s0.5,1.4,0.7,2.1   s0.5,1.4,0.8,2.1c0.2,0.7,0.5,1.3,0.7,2s0.5,1.1,0.6,1.6C-1489.8,1900.6-1489.8,1900.9-1489.7,1901.1 M-1495.3,1896.4   c0.2,0,0.5,0,0.7,0s0.5,0,0.7,0s0.5,0,0.7,0s0.5,0,0.7,0l-1.4-3.8L-1495.3,1896.4z"></path>		<path id="Trazado_252_00000149356534989459486480000008601100111393435783_" class="st2" d="M-1488.7,1895.8   c0.1-0.5,0.5-0.8,0.7-1.1c0.3-0.3,0.7-0.6,1-0.7c0.3-0.1,0.8-0.2,1.3-0.2s0.9,0,1.3,0.2c0.3,0.1,0.6,0.2,0.8,0.5   c-0.1,0.1-0.1,0.3-0.1,0.5c0,0.1-0.1,0.3-0.1,0.5h-0.1c-0.1-0.1-0.1-0.2-0.2-0.3c-0.1-0.1-0.2-0.2-0.3-0.3   c-0.1-0.1-0.3-0.2-0.5-0.3c-0.2-0.1-0.3-0.1-0.6-0.1c-0.3,0-0.7,0.1-1,0.2c-0.2,0.1-0.6,0.3-0.7,0.7c-0.2,0.3-0.3,0.7-0.3,1   c-0.1,0.5-0.1,0.8-0.1,1.3c0,0.8,0.1,1.6,0.6,2.3c0.3,0.6,1,0.8,1.6,0.8c0.2,0,0.3,0,0.6-0.1c0.2-0.1,0.3-0.1,0.6-0.2   c0.1-0.1,0.3-0.2,0.5-0.3c0.1-0.1,0.2-0.2,0.3-0.5h0.1c0,0.2-0.1,0.5-0.1,0.7c-0.2,0.2-0.6,0.5-0.9,0.6c-0.3,0.2-0.8,0.2-1.1,0.2   c-0.3,0-0.8-0.1-1.1-0.2c-0.3-0.1-0.7-0.3-1-0.6c-0.3-0.3-0.6-0.7-0.7-1.1c-0.2-0.6-0.3-1.1-0.3-1.7   C-1488.9,1896.9-1488.8,1896.4-1488.7,1895.8"></path>		<path id="Trazado_253_00000003087389834386047120000002859375428830225596_" class="st2" d="M-1479.4,1895c-0.1,0-0.2-0.1-0.3-0.1   c-0.2,0-0.3,0-0.6,0.1c-0.1,0.1-0.3,0.2-0.3,0.5c-0.1,0.2-0.2,0.5-0.2,0.7c-0.1,0.2-0.1,0.6-0.1,0.8v1.6c0,0.7,0,1.1,0,1.5   c0,0.3,0,0.7,0,0.9c-0.1,0-0.3,0-0.6,0s-0.3,0-0.6,0c0-0.3,0-0.8,0-1.4c0-0.6,0-1.3,0-2.2v-0.5c0-0.3,0-0.8,0-1.4   c0-0.6,0-1.1,0-1.7c0.1,0,0.2,0,0.2,0.1c0.1,0,0.2,0,0.2,0c0.1,0,0.1,0,0.2,0c0.1,0,0.1,0,0.2-0.1c0,0.3,0,0.7-0.1,0.9   c-0.1,0.2,0,0.5,0,0.6l0,0c0.5-1,1-1.6,1.7-1.6c0.1,0,0.1,0,0.2,0c0.1,0,0.1,0,0.2,0.1c0,0.2-0.1,0.3-0.1,0.6s0,0.5,0,0.7   l-0.1,0.1C-1479.1,1895.1-1479.3,1895-1479.4,1895"></path>		<path id="Trazado_254_00000163764550048437899500000007538746979860183435_" class="st2" d="M-1477.5,1894.9   c0.5-0.7,1.4-1.1,2.2-1c0.5,0,0.8,0.1,1.1,0.2c0.3,0.1,0.6,0.3,0.8,0.7s0.3,0.6,0.5,0.9c0.1,0.3,0.1,0.8,0.1,1.1   c0,0.1,0,0.2,0,0.3c0,0.1,0,0.2,0,0.3c-0.5,0-0.9,0-1.4,0s-0.9,0-1.4,0c-0.2,0-0.6,0-0.8,0s-0.6,0-0.8,0c0,0.1,0,0.1,0,0.2v0.2   c0,0.3,0,0.8,0.1,1.1c0.1,0.3,0.2,0.6,0.5,0.9c0.2,0.2,0.5,0.5,0.7,0.6c0.3,0.1,0.6,0.2,0.9,0.2c0.2,0,0.3,0,0.6-0.1   c0.2-0.1,0.3-0.1,0.6-0.2c0.1-0.1,0.3-0.2,0.5-0.3c0.1-0.1,0.2-0.2,0.3-0.5h0.1l-0.1,0.7c-0.2,0.2-0.6,0.5-0.9,0.6   c-0.3,0.2-0.8,0.2-1.1,0.2c-0.5,0-0.9-0.1-1.3-0.2c-0.3-0.1-0.7-0.5-0.9-0.7c-0.3-0.3-0.5-0.7-0.7-1.1c-0.1-0.5-0.2-0.9-0.2-1.4   C-1478.3,1896.7-1478.1,1895.7-1477.5,1894.9 M-1476,1894.5c-0.2,0.1-0.5,0.3-0.6,0.7c-0.1,0.2-0.2,0.6-0.3,0.8   c-0.1,0.2-0.1,0.6-0.1,0.9c0.2,0,0.6,0,0.8,0s0.6,0,0.8,0s0.6,0,0.8,0s0.6,0,0.8,0c0-0.2,0-0.6-0.1-0.8c0-0.3-0.1-0.6-0.2-0.8   c-0.1-0.2-0.2-0.5-0.5-0.7c-0.2-0.2-0.6-0.2-0.8-0.2C-1475.6,1894.3-1475.8,1894.3-1476,1894.5"></path>		<path id="Trazado_255_00000144323096744829766230000003624540410127394442_" class="st2" d="M-1467,1899.6   c-0.1,0.2-0.1,0.3-0.2,0.6c-0.1,0.2-0.2,0.3-0.5,0.5c-0.2,0.1-0.3,0.3-0.6,0.3c-0.2,0.1-0.6,0.1-0.8,0.1c-0.3,0-0.7-0.1-0.9-0.2   c-0.3-0.1-0.6-0.3-0.8-0.7c-0.2-0.3-0.5-0.7-0.6-1.1c-0.1-0.6-0.2-1.1-0.2-1.7c0-0.6,0.1-1.1,0.2-1.6c0.1-0.5,0.3-0.8,0.7-1.1   c0.2-0.3,0.6-0.6,0.9-0.7c0.3-0.1,0.7-0.2,1-0.2c0.9,0,1.7,0.6,2,1.5l0,0v-1.5c0-0.3,0-0.8,0-1.1s0-0.8,0-1.1s0-0.7,0-1   c0-0.3,0-0.6,0-0.8c0.1,0,0.2,0,0.3,0c0.1,0,0.2,0,0.2,0c0.1,0,0.2,0,0.2,0c0.1,0,0.2,0,0.3,0c0,0.3-0.1,0.8-0.1,1.4   c0,0.6,0,1.3,0,2.1s0,1.5,0,2.3s0,1.5,0,2.1c0,0.7,0,1.3,0,1.8c0,0.6,0,1.1,0,1.7c-0.1,0-0.3,0-0.5,0c-0.1,0-0.3,0-0.5,0   L-1467,1899.6L-1467,1899.6z M-1470.4,1899.1c0.1,0.3,0.2,0.7,0.5,0.9c0.1,0.2,0.3,0.3,0.6,0.5c0.2,0.1,0.5,0.1,0.7,0.1   c0.3,0,0.6-0.1,0.9-0.3c0.2-0.2,0.5-0.5,0.6-0.8c0.1-0.3,0.2-0.7,0.3-1c0.1-0.3,0.1-0.8,0.1-1.3c0-0.8-0.1-1.5-0.5-2.2   c-0.3-0.5-0.8-0.8-1.4-0.8c-0.3,0-0.6,0.1-0.8,0.2c-0.2,0.2-0.5,0.5-0.6,0.7c-0.1,0.3-0.2,0.7-0.3,1c-0.1,0.5-0.1,0.8-0.1,1.3   C-1470.6,1898.1-1470.5,1898.7-1470.4,1899.1"></path>		<path id="Trazado_256_00000018197366034089571800000015382914061293525392_" class="st2" d="M-1463.8,1890.7   c0.1-0.1,0.2-0.2,0.5-0.2c0.2,0,0.3,0.1,0.5,0.2c0.1,0.1,0.2,0.3,0.2,0.6s-0.1,0.3-0.2,0.6c-0.1,0.1-0.3,0.2-0.5,0.2   c-0.2,0-0.3-0.1-0.5-0.2c-0.1-0.1-0.2-0.3-0.2-0.6S-1463.9,1891-1463.8,1890.7 M-1463.8,1895.3c0-0.5,0-0.9-0.1-1.4   c0.2,0,0.3,0.1,0.6,0.1s0.3,0,0.6-0.1c0,0.5-0.1,0.9-0.1,1.4s0,0.9,0,1.4v1.6c0,0.5,0,0.9,0,1.4s0,0.9,0.1,1.4c-0.2,0-0.3,0-0.6,0   s-0.3,0-0.6,0c0-0.3,0.1-0.8,0.1-1.4c0-0.6,0-1,0-1.4v-1.6C-1463.8,1896.3-1463.8,1895.8-1463.8,1895.3"></path>		<path id="Trazado_257_00000160878134092595993390000009073189983265202053_" class="st2" d="M-1459.4,1891.9c0,0.3,0,0.8-0.1,1.1   c-0.1,0.3,0,0.7,0,1.1c0.1,0,0.2,0,0.6,0s0.6,0,0.8,0v0.1v0.3v0.1c-0.1,0-0.2,0-0.3,0c-0.1,0-0.2,0-0.3,0h-0.7c0,0.1,0,0.3,0,0.5   c0,0.2,0,0.6,0,1c0,0.3,0,0.8,0,1.3s0,0.8,0,1.1c0,0.3,0,0.6,0,0.8s0,0.5,0.1,0.7c0.1,0.2,0.1,0.3,0.3,0.6   c0.1,0.1,0.3,0.2,0.6,0.2c0.1,0,0.2,0,0.2,0c0.1,0,0.2,0,0.3-0.1v0.3c-0.1,0-0.3,0.1-0.5,0.1c-0.1,0-0.3,0.1-0.6,0.1   c-0.5,0-0.9-0.1-1.1-0.5c-0.3-0.3-0.5-0.9-0.5-1.4c0-0.2,0-0.6,0-0.9c0-0.3,0-0.7,0-1s0-0.8,0-1.3s0-0.9,0-1.5h-0.5   c0,0-0.1,0-0.2,0c-0.1,0-0.1,0-0.2,0c0-0.1,0-0.1,0-0.2v-0.3v-0.1c0.3,0,0.7,0,0.8,0c0-0.2,0-0.5,0-0.8c0-0.3,0-0.6,0-0.9   L-1459.4,1891.9L-1459.4,1891.9z"></path>		<path id="Trazado_258_00000031890648083088396790000016346465524561413768_" class="st2" d="M-1455.7,1894c0.3-0.1,0.7-0.2,1-0.2   c0.3,0,0.6,0,0.8,0.1c0.2,0.1,0.5,0.2,0.7,0.5c0.2,0.2,0.3,0.5,0.5,0.7c0.1,0.3,0.1,0.6,0.1,0.9c0,0.6,0,1.1,0,1.7   c0,0.6,0,1.1,0,1.8c0,0.1,0,0.2,0,0.3c0,0.1,0,0.2,0,0.3s0.1,0.2,0.1,0.2c0.1,0.1,0.2,0.1,0.2,0.1h0.1h0.1v0.3   c-0.1,0-0.2,0.1-0.3,0.1c-0.1,0-0.3,0-0.5,0c-0.2,0-0.5-0.1-0.7-0.2c-0.1-0.2-0.2-0.5-0.2-0.7c-0.2,0.3-0.6,0.6-0.9,0.8   c-0.3,0.2-0.7,0.2-1.1,0.2c-0.2,0-0.5,0-0.6-0.1c-0.2-0.1-0.3-0.2-0.6-0.3c-0.1-0.1-0.3-0.3-0.3-0.6c-0.1-0.2-0.1-0.5-0.1-0.8   c0-0.5,0.1-1,0.5-1.4c0.3-0.3,0.8-0.6,1.4-0.7c0.5-0.1,0.8-0.1,1-0.2c0.2,0,0.3-0.1,0.6-0.2c0.1,0,0.2-0.1,0.2-0.2   c0-0.1,0-0.2,0-0.3c0-0.2,0-0.5-0.1-0.7c0-0.2-0.1-0.5-0.2-0.6c-0.1-0.2-0.2-0.3-0.5-0.5c-0.2-0.1-0.5-0.1-0.7-0.1   c-0.3,0-0.7,0.1-0.9,0.2c-0.2,0.2-0.6,0.5-0.7,0.8h-0.1v-0.8C-1456.5,1894.3-1456.2,1894.1-1455.7,1894 M-1454.1,1897.5   c-0.2,0-0.3,0.1-0.6,0.1c-0.2,0-0.3,0.1-0.6,0.1c-0.2,0.1-0.3,0.1-0.6,0.3c-0.1,0.1-0.2,0.2-0.3,0.5c-0.1,0.2-0.1,0.5-0.1,0.7   c0,0.3,0.1,0.8,0.3,1c0.2,0.2,0.5,0.3,0.8,0.3c0.3,0,0.7-0.1,0.9-0.3c0.2-0.2,0.5-0.5,0.6-0.8l0.1-2.3   C-1453.8,1897.4-1454,1897.4-1454.1,1897.5"></path>		<path id="Trazado_259_00000183968389106122194200000000862704366592336004_" class="st2" d="M-1450.7,1895.8   c0.1-0.5,0.5-0.8,0.7-1.1c0.3-0.3,0.7-0.6,1-0.7c0.3-0.1,0.8-0.2,1.3-0.2s0.8,0,1.3,0.2c0.3,0.1,0.6,0.2,0.8,0.5   c-0.1,0.1-0.1,0.3-0.1,0.5c0,0.2-0.1,0.3-0.1,0.5h-0.1c-0.1-0.1-0.1-0.2-0.2-0.3c-0.1-0.1-0.2-0.2-0.3-0.3   c-0.1-0.1-0.3-0.2-0.5-0.3c-0.2-0.1-0.3-0.1-0.6-0.1c-0.3,0-0.7,0.1-1,0.2c-0.2,0.1-0.6,0.5-0.7,0.7c-0.2,0.3-0.3,0.7-0.3,1   c-0.1,0.5-0.1,0.8-0.1,1.3c0,0.8,0.1,1.6,0.6,2.3c0.3,0.6,1,0.8,1.6,0.8c0.2,0,0.3,0,0.6-0.1c0.2-0.1,0.3-0.1,0.6-0.2   c0.1-0.1,0.3-0.2,0.5-0.3c0.1-0.1,0.2-0.2,0.3-0.5h0.1c0,0.2-0.1,0.5-0.1,0.7c-0.2,0.2-0.6,0.5-0.9,0.6c-0.3,0.2-0.8,0.2-1.1,0.2   s-0.8-0.1-1.1-0.2s-0.7-0.3-1-0.6c-0.3-0.3-0.6-0.7-0.7-1.1c-0.2-0.6-0.2-1.1-0.2-1.7C-1450.9,1896.9-1450.9,1896.4-1450.7,1895.8   "></path>		<path id="Trazado_260_00000118379971696374360030000006450586622661749674_" class="st2" d="M-1443.7,1890.7   c0.1-0.1,0.2-0.2,0.5-0.2c0.2,0,0.3,0.1,0.5,0.2c0.1,0.1,0.2,0.3,0.2,0.6s-0.1,0.3-0.2,0.6c-0.1,0.1-0.2,0.2-0.5,0.2   c-0.2,0-0.3-0.1-0.5-0.2c-0.1-0.1-0.2-0.3-0.2-0.6S-1443.9,1891-1443.7,1890.7 M-1443.8,1895.3c0-0.5,0-0.9-0.1-1.4   c0.2,0,0.3,0.1,0.6,0.1s0.3,0,0.6-0.1c0,0.5-0.1,0.9-0.1,1.4s0,0.9,0,1.4v1.6c0,0.5,0,0.9,0,1.4s0,0.9,0.1,1.4c-0.2,0-0.3,0-0.6,0   s-0.3,0-0.6,0c0-0.3,0.1-0.8,0.1-1.4c0-0.6,0-1,0-1.4v-1.6C-1443.8,1896.3-1443.8,1895.8-1443.8,1895.3"></path>		<path id="Trazado_261_00000039120866887884977630000014423778276223857803_" class="st2" d="M-1440.8,1895.8   c0.1-0.5,0.5-0.8,0.7-1.1c0.2-0.3,0.7-0.5,1-0.7c0.3-0.1,0.7-0.2,1.1-0.2c0.3,0,0.8,0.1,1.1,0.2c0.3,0.1,0.7,0.3,1,0.7   c0.3,0.3,0.6,0.7,0.7,1.1c0.2,0.6,0.3,1.1,0.2,1.7c0,0.6-0.1,1.1-0.2,1.7c-0.1,0.5-0.3,0.8-0.7,1.1c-0.2,0.2-0.6,0.5-1,0.6   c-0.3,0.1-0.7,0.2-1.1,0.2c-0.3,0-0.8-0.1-1.1-0.2c-0.3-0.1-0.7-0.3-1-0.6c-0.3-0.3-0.6-0.7-0.7-1.1c-0.2-0.6-0.3-1.1-0.2-1.7   C-1441,1896.9-1440.9,1896.4-1440.8,1895.8 M-1439.8,1898.8c0.1,0.3,0.2,0.7,0.3,1c0.1,0.3,0.3,0.6,0.6,0.8s0.6,0.2,0.9,0.2   c0.3,0,0.7-0.1,0.9-0.2c0.2-0.2,0.5-0.5,0.6-0.8c0.1-0.3,0.2-0.7,0.3-1c0.1-0.5,0.1-0.8,0.1-1.3s0-0.8-0.1-1.3   c-0.1-0.3-0.2-0.7-0.3-1c-0.1-0.3-0.3-0.6-0.6-0.7c-0.2-0.2-0.6-0.2-0.9-0.2c-0.3,0-0.7,0.1-0.9,0.2c-0.2,0.2-0.5,0.5-0.6,0.7   c-0.1,0.3-0.2,0.7-0.3,1c-0.1,0.5-0.1,0.8-0.1,1.3S-1439.9,1898.3-1439.8,1898.8 M-1436.3,1890.1c0.1,0,0.2,0,0.2,0.1   c0.1,0.1,0.1,0.2,0.1,0.3s0,0.3-0.1,0.5c-0.1,0.1-0.2,0.2-0.3,0.2l-2,1.4h-0.6l1.8-2.2   C-1436.8,1890.2-1436.5,1890.1-1436.3,1890.1"></path>		<path id="Trazado_262_00000054261268750901534840000008425197952734965666_" class="st2" d="M-1429.5,1895.1   c-0.2-0.3-0.6-0.6-1-0.6c-0.6,0-1,0.2-1.4,0.7c-0.3,0.6-0.5,1.1-0.5,1.8v1.3c0,0.5,0,0.9,0,1.4s0,0.9,0.1,1.4c-0.2,0-0.3,0-0.6,0   s-0.3,0-0.6,0c0-0.3,0.1-0.8,0.1-1.4c0-0.6,0-0.9,0-1.4v-1.6c0-0.5,0-0.9,0-1.4s0-0.9-0.1-1.4c0.2,0,0.3,0.1,0.6,0.1   c0.1,0,0.1,0,0.2,0c0.1,0,0.2,0,0.3-0.1c0,0.5,0,0.8,0,1.3l0,0c0.2-0.3,0.5-0.7,0.8-1c0.3-0.2,0.8-0.3,1.3-0.3   c0.2,0,0.5,0,0.7,0.1c0.2,0.1,0.5,0.2,0.7,0.5c0.2,0.2,0.3,0.5,0.5,0.8c0.1,0.5,0.2,0.8,0.2,1.3s0,0.9,0,1.4s0,0.9,0,1.5v1   c0,0.1,0,0.3,0,0.5c0,0.1,0,0.3,0,0.5c-0.2,0-0.3,0-0.6,0c-0.2,0-0.3,0-0.6,0c0-0.5,0-1,0.1-1.6c0.1-0.6,0-1.1,0-1.7v-0.9   C-1429.1,1896.3-1429.2,1895.7-1429.5,1895.1"></path>		<path id="Trazado_263_00000091732867043231420210000006088455895612520607_" class="st2" d="M-1491.3,1912.6   c-0.1,0.1-0.3,0.1-0.6,0.2c-0.2,0.1-0.5,0.1-0.7,0.1s-0.6,0.1-0.8,0.1c-0.6,0-1.1-0.1-1.7-0.2c-0.5-0.1-0.9-0.5-1.4-0.8   c-0.3-0.3-0.7-0.8-0.9-1.4c-0.2-0.6-0.3-1.1-0.3-1.8c0-0.6,0.1-1.3,0.3-1.8c0.2-0.5,0.5-1,0.9-1.4c0.3-0.3,0.8-0.7,1.4-0.8   c0.6-0.2,1.1-0.3,1.7-0.2c0.5,0,0.9,0,1.4,0.1c0.3,0.1,0.8,0.2,1.1,0.3c-0.1,0.1-0.1,0.3-0.1,0.5c0,0.1,0,0.3-0.1,0.5h-0.1   c-0.1-0.1-0.2-0.2-0.3-0.3c-0.1-0.1-0.3-0.2-0.5-0.3c-0.2-0.1-0.5-0.2-0.6-0.2c-0.2-0.1-0.5-0.1-0.8-0.1c-0.5,0-0.8,0.1-1.3,0.2   c-0.3,0.1-0.7,0.3-1,0.7c-0.3,0.3-0.6,0.8-0.7,1.1c-0.1,0.6-0.2,1.1-0.2,1.7c0,0.6,0.1,1.1,0.2,1.7c0.1,0.5,0.3,0.8,0.7,1.1   c0.2,0.3,0.6,0.6,1,0.7c0.3,0.1,0.8,0.2,1.3,0.2c0.2,0,0.6,0,0.8-0.1c0.2,0,0.5-0.1,0.7-0.2c0.2-0.1,0.3-0.2,0.5-0.3   c0.1-0.1,0.3-0.2,0.5-0.3l0,0l-0.1,0.7C-1491.1,1912.3-1491.2,1912.5-1491.3,1912.6"></path>		<path id="Trazado_264_00000125560857898988337270000006174697791928179341_" class="st2" d="M-1485.6,1909.7c-1-1.1-2-2.2-3-3.3   c0,0.2,0,0.6,0,0.9c0,0.3,0,0.9,0,1.5v0.6c0,0.2,0,0.6,0,0.8s0,0.6,0,0.8s0,0.6,0,0.8s0,0.5,0,0.6c0,0.1,0,0.3,0,0.3   c-0.1,0-0.2,0-0.5,0c-0.1,0-0.3,0-0.5,0c0-0.1,0-0.3,0.1-0.5c0-0.2,0-0.5,0-0.8c0-0.3,0-0.6,0-1s0-0.7,0.1-1c0.1-0.3,0-0.7,0-1   c0-0.3,0-0.6,0-0.9c0-0.8,0-1.4,0-2c0-0.6,0-0.9,0-1.3h0.2c0.5,0.6,1,1.1,1.5,1.7c0.5,0.6,1,1.3,1.6,1.8c0.6,0.6,1,1.1,1.5,1.6   s0.9,0.9,1.3,1.4v-1.6c0-0.8,0-1.6,0-2.4c0-0.8,0-1.6-0.1-2.3c0.1,0,0.2,0.1,0.3,0.1s0.2,0,0.3-0.1c0,0.1,0,0.5,0,0.8   c0,0.3,0,0.7,0,1.1s0,0.8-0.1,1.1c0,0.3,0,0.7,0,0.9v1.6c0,0.3,0,0.6,0,0.9c0,0.3,0,0.6,0,0.8s0,0.5,0,0.7v0.5h-0.1   C-1483.6,1911.9-1484.5,1910.8-1485.6,1909.7"></path>		<path id="Trazado_265_00000174585345686803149300000011686509624898452151_" class="st2" d="M-1474.1,1912.8c-0.1,0-0.2,0-0.3,0   h-0.6c-0.1,0-0.2,0-0.3,0c0-0.2-0.1-0.3-0.2-0.7c-0.1-0.3-0.2-0.6-0.3-0.8s-0.2-0.6-0.3-0.9c-0.1-0.3-0.2-0.6-0.3-0.8   c-0.2,0-0.5,0-0.8,0c-0.3,0-0.5,0-0.8,0c-0.2,0-0.5,0-0.7,0s-0.5,0-0.7,0c-0.2,0.6-0.5,1.3-0.7,1.8c-0.2,0.6-0.3,1-0.5,1.4   c-0.1,0-0.2,0-0.5,0s-0.3,0-0.5,0c0.6-1.4,1.3-2.8,1.8-4.1c0.6-1.4,1.1-2.8,1.8-4.2h0.2c0.2,0.5,0.3,0.9,0.6,1.5   c0.2,0.6,0.5,1,0.7,1.6c0.2,0.6,0.5,1.1,0.7,1.6s0.5,1,0.7,1.5s0.3,0.9,0.6,1.3C-1474.3,1912.2-1474.2,1912.6-1474.1,1912.8    M-1479.3,1909.1c0.2,0,0.5,0,0.6,0c0.1,0,0.5,0,0.6,0h0.7c0.2,0,0.5,0,0.7,0l-1.3-3.1L-1479.3,1909.1z"></path>					<rect id="Rect&#xE1;ngulo_25_00000060733169474582111320000005331281232950108044_" x="-1473.4" y="1909.6" class="st2" width="2.9" height="0.8"></rect>		<path id="Trazado_266_00000174578870035985230630000009126420561967197615_" class="st2" d="M-1463.3,1912.6   c-0.1,0.1-0.3,0.1-0.6,0.2c-0.2,0.1-0.5,0.1-0.7,0.1c-0.2,0-0.6,0.1-0.8,0.1c-0.6,0-1.1-0.1-1.7-0.2c-0.5-0.1-0.9-0.5-1.4-0.8   c-0.3-0.3-0.7-0.8-0.9-1.4c-0.2-0.6-0.3-1.1-0.3-1.8c0-0.6,0.1-1.3,0.3-1.8c0.2-0.5,0.5-1,0.9-1.4c0.3-0.3,0.8-0.7,1.4-0.8   c0.6-0.2,1.1-0.3,1.7-0.2c0.5,0,0.9,0,1.4,0.1c0.3,0.1,0.8,0.2,1.1,0.3c-0.1,0.1-0.1,0.3-0.1,0.5c0,0.1-0.1,0.3-0.1,0.5h-0.1   c-0.1-0.1-0.2-0.2-0.3-0.3c-0.1-0.1-0.3-0.2-0.5-0.3c-0.2-0.1-0.5-0.2-0.7-0.2c-0.2-0.1-0.5-0.1-0.8-0.1c-0.5,0-0.8,0.1-1.3,0.2   c-0.3,0.1-0.7,0.3-1,0.7c-0.3,0.3-0.6,0.8-0.7,1.1c-0.1,0.6-0.2,1.1-0.2,1.7c0,0.6,0.1,1.1,0.2,1.7c0.1,0.5,0.3,0.8,0.7,1.1   c0.2,0.3,0.6,0.6,1,0.7c0.3,0.1,0.8,0.2,1.3,0.2c0.2,0,0.6,0,0.8-0.1c0.2,0,0.5-0.1,0.7-0.2c0.2-0.1,0.3-0.2,0.6-0.3   c0.1-0.1,0.3-0.2,0.3-0.3l0,0l-0.1,0.7C-1463.1,1912.3-1463.2,1912.5-1463.3,1912.6"></path>		<path id="Trazado_267_00000139275588919580618910000011076176481941432752_" class="st2" d="M-1461.5,1906.4c0-0.3,0-0.7,0-0.9   s0-0.6,0-0.9c0-0.3,0-0.6,0-0.7c0.1,0,0.3,0,0.5,0.1c0.2,0,0.3,0,0.6-0.1c0,0.2,0,0.5,0,0.7s0,0.6,0,0.9c0,0.3,0,0.6,0,0.9   c0,0.3,0,0.6,0,0.8v0.9l0,0c0.2-0.3,0.5-0.6,0.8-0.8s0.7-0.3,1-0.2c0.2,0,0.5,0,0.7,0.1c0.2,0.1,0.5,0.2,0.6,0.3   c0.2,0.2,0.3,0.3,0.5,0.7c0.1,0.3,0.2,0.7,0.1,1c0,0.3,0,0.7,0,1c0,0.3,0,0.8,0,1.1v0.8c0,0.1,0,0.2,0,0.3c0,0.1,0,0.2,0,0.3   c-0.1,0-0.3,0-0.5,0c-0.1,0-0.3,0-0.5,0c0-0.5,0-0.8,0-1.3c0-0.5,0-0.9,0-1.4v-0.7c0-0.5-0.1-0.9-0.3-1.4   c-0.2-0.3-0.6-0.5-0.9-0.5c-0.5,0-0.9,0.1-1.1,0.6s-0.5,0.9-0.3,1.5c0,0.2,0,0.5,0,0.8c0,0.3,0,0.6,0,0.9c0,0.3,0,0.6,0,0.9   c0,0.3,0,0.5,0,0.7c-0.2,0-0.3,0-0.6,0s-0.3,0-0.5,0c0-0.2,0-0.5,0-0.7s0-0.6,0-0.9c0-0.3,0-0.7,0-0.9s0-0.6,0-0.9v-2.2   C-1461.5,1906.9-1461.5,1906.6-1461.5,1906.4"></path>		<path id="Trazado_268_00000103976060318739404210000013789867458465524400_" class="st2" d="M-1454.8,1904.5   c0.1-0.1,0.2-0.2,0.5-0.2c0.1,0,0.3,0.1,0.5,0.2c0.1,0.1,0.1,0.2,0.1,0.5c0,0.1,0,0.3-0.1,0.5c-0.1,0.1-0.2,0.2-0.5,0.2   c-0.1,0-0.3-0.1-0.5-0.2c-0.1-0.1-0.2-0.2-0.1-0.5C-1455,1904.9-1454.9,1904.6-1454.8,1904.5 M-1454.8,1908.2c0-0.3,0-0.8-0.1-1.1   c0.2,0,0.3,0,0.6,0.1c0.1,0,0.3,0,0.5-0.1c0,0.3-0.1,0.7-0.1,1.1s0,0.8,0,1.1v1.3c0,0.3,0,0.7,0,1.1s0,0.8,0.1,1   c-0.1,0-0.3,0-0.5,0c-0.1,0-0.3,0-0.6,0c0-0.3,0.1-0.7,0.1-1c0-0.3,0-0.8,0-1.1v-1.3C-1454.8,1909-1454.8,1908.5-1454.8,1908.2"></path>		<path id="Trazado_269_00000155838202054741810090000003751665832861386417_" class="st2" d="M-1451.6,1906.4c0-0.3,0-0.7,0-0.9   s0-0.6,0-0.9c0-0.3,0-0.6,0-0.7c0.1,0,0.3,0,0.5,0.1c0.2,0,0.3,0,0.6-0.1c0,0.2,0,0.5,0,0.7s0,0.6,0,0.9c0,0.3,0,0.7,0,0.9   s0,0.6,0,0.9v2.2c0,0.2,0,0.6,0,0.9c0,0.3,0,0.7,0,0.9s0,0.6,0,0.9s0,0.5,0,0.7c-0.2,0-0.3,0-0.6,0s-0.3,0-0.5,0   c0-0.2,0-0.5,0-0.7s0-0.6,0-0.9s0-0.7,0-0.9V1906.4z"></path>		<path id="Trazado_270_00000054958607045507122210000002089306277582925498_" class="st2" d="M-1448.5,1907.9   c0.5-0.6,1.3-0.9,2-0.8c0.3,0,0.7,0.1,1,0.2c0.2,0.1,0.6,0.3,0.8,0.6s0.3,0.5,0.5,0.8c0.1,0.3,0.1,0.6,0.1,0.9v0.2   c0,0.1,0,0.1,0,0.2c-0.5,0-0.8,0-1.3,0s-0.8,0-1.3,0c-0.2,0-0.5,0-0.8,0c-0.3,0-0.5,0-0.8,0c0,0.1,0,0.1,0,0.2v0.1   c0,0.3,0,0.6,0.1,0.9c0.1,0.2,0.2,0.5,0.3,0.7c0.1,0.2,0.3,0.3,0.6,0.5c0.2,0.1,0.6,0.2,0.8,0.2c0.1,0,0.3,0,0.5-0.1   c0.1,0,0.3-0.1,0.5-0.1c0.1-0.1,0.3-0.1,0.5-0.2c0.1-0.1,0.2-0.2,0.3-0.3h0.1l-0.1,0.6c-0.2,0.2-0.6,0.3-0.8,0.5   c-0.3,0.1-0.7,0.2-1,0.2c-0.3,0-0.8,0-1.1-0.2c-0.3-0.1-0.7-0.3-0.9-0.6c-0.2-0.2-0.5-0.6-0.6-0.9c-0.1-0.3-0.2-0.7-0.2-1.1   C-1449.3,1909.4-1449.1,1908.4-1448.5,1907.9 M-1447.2,1907.5c-0.2,0.1-0.3,0.3-0.5,0.5c-0.1,0.2-0.2,0.5-0.2,0.7   c-0.1,0.2-0.1,0.5-0.1,0.7c0.2,0,0.5,0,0.8,0s0.5,0,0.8,0c0.3,0,0.5,0,0.8,0s0.5,0,0.8,0c0-0.2,0-0.5-0.1-0.7   c0-0.2-0.1-0.5-0.2-0.7c-0.1-0.2-0.2-0.3-0.5-0.5c-0.2-0.1-0.5-0.2-0.7-0.2C-1446.8,1907.4-1447,1907.4-1447.2,1907.5"></path>		<path id="Trazado_271_00000171690359040188848410000004007211537691849636_" class="st3" d="M-1465.5,1834.3l11.5,25.4l-7.9,5.7   l-9.9-21.9l-12.6,29.1l-0.5,0.5l-1,0.3h-9l-0.2-0.1l17.1-39.3l0.5-0.5h11.6l0.2,0.2L-1465.5,1834.3z"></path>		<path id="Trazado_272_00000054260440058275819640000007297447603832654727_" class="st3" d="M-1461.9,1865.6l-10.2,8h13.4   L-1461.9,1865.6z"></path>		<path id="Trazado_273_00000005227939814287582840000009466533995192551812_" class="st3" d="M-1453.9,1859.9l20.2-16.4l-13.2,30.2   h-0.6l-0.3-0.3L-1453.9,1859.9z"></path>	</g>			<line id="L&#xED;nea_5_00000039854584519468064430000001927552194206590356_" class="st1" x1="20.3" y1="117.3" x2="198.3" y2="117.3"></line>	<g id="Grupo_31_00000147208412022332778690000013501175044393444761_" transform="translate(1589.463 -1791.658)">		<g id="Grupo_29_00000138560023361886352450000002960748549607528066_">			<g id="Grupo_28_00000132809530144171989060000002914734855326102440_">				<path id="Trazado_274_00000077316773217087997060000018367731418198042289_" class="st2" d="M-1544,1945.7     c0,6.5-5.4,10.8-12.2,10.8c-9.1,0-14.4-5.9-14.4-16.5c0-11.4,6.7-17.7,16.3-17.7c3.1-0.1,6.1,0.7,8.7,2.2l-2.3,4.6     c-2-1.1-4.1-1.7-6.3-1.6c-6.3,0-10.2,3.9-10.2,11.5l0,0c2-2.3,5.2-3.4,8.8-3.4C-1548.9,1935.4-1544,1939.5-1544,1945.7z      M-1549.9,1945.9c0-3.4-2.6-5.6-6.7-5.6s-6.8,2.4-6.8,5.7c0,3.1,2.4,5.6,6.9,5.6C-1552.6,1951.5-1549.9,1949.3-1549.9,1945.9z"></path>			</g>		</g>		<g class="st4">			<path class="st2" d="M-1524.1,1929.2v-7h2.9v6.9c0,2.4,1,3.3,2.8,3.3c1.7,0,2.8-1,2.8-3.3v-6.9h2.9v7c0,3.7-2.1,5.7-5.6,5.7    C-1522,1935-1524.1,1932.9-1524.1,1929.2z"></path>			<path class="st2" d="M-1498.4,1922.2v12.5h-2.4l-6.2-7.6v7.6h-2.9v-12.5h2.4l6.2,7.6v-7.6H-1498.4z"></path>			<path class="st2" d="M-1495.4,1922.2h2.9v12.5h-2.9V1922.2z"></path>			<path class="st2" d="M-1477.6,1922.2l-5.4,12.5h-2.9l-5.4-12.5h3.1l3.8,9l3.9-9H-1477.6z"></path>			<path class="st2" d="M-1466.8,1932.4v2.3h-9.8v-12.5h9.5v2.3h-6.5v2.8h5.9v2.3h-5.9v2.9H-1466.8z"></path>			<path class="st2" d="M-1456.5,1934.7l-2.4-3.4h-0.1h-2.5v3.4h-2.9v-12.5h5.4c3.3,0,5.4,1.7,5.4,4.6c0,1.8-0.9,3.2-2.5,4l2.9,4    h-3.2V1934.7z M-1459.2,1924.5h-2.4v4.4h2.4c1.7,0,2.6-0.8,2.6-2.2C-1456.6,1925.4-1457.5,1924.5-1459.2,1924.5z"></path>			<path class="st2" d="M-1452.3,1933.5l1-2.2c1,0.8,2.6,1.3,4.1,1.3c1.7,0,2.4-0.6,2.4-1.4c0-2.3-7.3-0.7-7.3-5.4    c0-2.2,1.7-3.9,5.3-3.9c1.6,0,3.2,0.3,4.4,1.1l-0.9,2.2c-1.1-0.7-2.4-1-3.4-1c-1.7,0-2.4,0.7-2.4,1.4c0,2.3,7.3,0.7,7.3,5.3    c0,2.1-1.7,3.9-5.3,3.9C-1449.2,1935-1451.2,1934.4-1452.3,1933.5z"></path>			<path class="st2" d="M-1439.9,1922.2h2.9v12.5h-2.9V1922.2z"></path>			<path class="st2" d="M-1434.1,1922.2h5.7c4.1,0,6.9,2.5,6.9,6.3c0,3.8-2.9,6.3-6.9,6.3h-5.7V1922.2z M-1428.4,1932.3    c2.5,0,4.1-1.5,4.1-3.9c0-2.4-1.6-3.9-4.1-3.9h-2.6v7.8H-1428.4z"></path>			<path class="st2" d="M-1411.1,1932.1h-5.9l-1.1,2.6h-3l5.6-12.5h2.9l5.6,12.5h-3.1L-1411.1,1932.1z M-1412,1929.9l-2-4.8l-2,4.8    H-1412z"></path>			<path class="st2" d="M-1405.7,1922.2h5.7c4.1,0,6.9,2.5,6.9,6.3c0,3.8-2.9,6.3-6.9,6.3h-5.7V1922.2z M-1400.1,1932.3    c2.5,0,4.1-1.5,4.1-3.9c0-2.4-1.6-3.9-4.1-3.9h-2.6v7.8H-1400.1z"></path>		</g>		<g class="st4">			<path class="st2" d="M-1515.3,1953.3h-6.2l-1.1,2.9h-3.2l6-13.4h3.1l6,13.4h-3.2L-1515.3,1953.3z M-1516.2,1951l-2.1-5.2    l-2.1,5.2H-1516.2z"></path>			<path class="st2" d="M-1510.4,1949.6c0-4,3.1-6.9,7.2-6.9c2.3,0,4.2,0.8,5.5,2.4l-2,1.8c-0.9-1-2.1-1.6-3.3-1.6    c-2.5,0-4.2,1.7-4.2,4.2s1.7,4.2,4.2,4.2c1.4,0,2.4-0.6,3.3-1.6l2,1.8c-1.3,1.5-3.2,2.4-5.5,2.4    C-1507.3,1956.4-1510.4,1953.6-1510.4,1949.6z"></path>			<path class="st2" d="M-1487.1,1956.2l-2.5-3.7h-0.1h-2.6v3.7h-3.1v-13.4h5.7c3.6,0,5.9,1.8,5.9,4.8c0,2-1,3.4-2.8,4.2l3,4.2h-3.4    V1956.2z M-1490,1945.4h-2.5v4.7h2.5c1.8,0,2.9-0.9,2.9-2.3C-1487.1,1946.2-1488,1945.4-1490,1945.4z"></path>			<path class="st2" d="M-1471.2,1953.8v2.5h-10.3v-13.4h10.1v2.5h-7v2.9h6.2v2.4h-6.2v3.1L-1471.2,1953.8L-1471.2,1953.8z"></path>			<path class="st2" d="M-1468.8,1942.9h6.1c4.4,0,7.3,2.6,7.3,6.7c0,4-3,6.7-7.3,6.7h-6.1V1942.9z M-1462.8,1953.7    c2.6,0,4.4-1.6,4.4-4.1s-1.7-4.1-4.4-4.1h-2.9v8.3H-1462.8z"></path>			<path class="st2" d="M-1452.9,1942.9h3.1v13.4h-3.1V1942.9z"></path>			<path class="st2" d="M-1443.9,1945.4h-4.2v-2.5h11.7v2.5h-4.2v10.9h-3.1v-10.9H-1443.9z"></path>			<path class="st2" d="M-1426.7,1953.3h-6.2l-1.1,2.9h-3.2l6-13.4h3.1l6,13.4h-3.2L-1426.7,1953.3z M-1427.6,1951l-2.1-5.2    l-2.1,5.2H-1427.6z"></path>			<path class="st2" d="M-1420.9,1942.9h6.1c4.4,0,7.3,2.6,7.3,6.7c0,4-3,6.7-7.3,6.7h-6.1V1942.9z M-1414.9,1953.7    c2.6,0,4.4-1.6,4.4-4.1s-1.7-4.1-4.4-4.1h-2.9v8.3H-1414.9z"></path>			<path class="st2" d="M-1396.5,1953.3h-6.2l-1.1,2.9h-3.2l6-13.4h3.1l6,13.4h-3.2L-1396.5,1953.3z M-1397.4,1951l-2.1-5.2    l-2.1,5.2H-1397.4z"></path>		</g>		<g id="Grupo_30_00000052791828977024945120000000735971926410091707_">			<path id="Trazado_275_00000081639064899003908720000007038739318681090967_" class="st2" d="M-1534.4,1949.3h4.5v1.7h-0.9    c0.7,0.6,1.1,1.5,1,2.4c0,1.7-0.9,2.9-2.3,2.9c-1.3,0-2.3-0.8-2.3-3.2v-2h-0.1c-1,0-1.6,0.6-1.6,2c0,0.8,0.2,1.6,0.8,2.3    l-1.3,0.7c-0.7-0.9-1-2.1-0.9-3.2C-1537.7,1950.6-1536.6,1949.3-1534.4,1949.3z M-1532.4,1951.2h-0.9v1.8c0,1.3,0.5,1.5,1,1.5    c0.7,0,1-0.6,1-1.5C-1531.1,1952.2-1531.6,1951.5-1532.4,1951.2z"></path>			<path id="Trazado_276_00000152250713143155265500000012955621014414924189_" class="st2" d="M-1534.3,1939.6h4.4v1.8h-4.1    c-1.4,0-2.1,0.7-2.1,1.8c-0.1,1.1,0.8,2.1,2,2.2c0.1,0,0.2,0,0.3,0h3.9v1.8h-7.6v-1.7h1c-0.7-0.7-1.1-1.6-1-2.6    c-0.1-1.6,1.1-3.1,2.8-3.2C-1534.8,1939.6-1534.6,1939.6-1534.3,1939.6z M-1538.7,1945v0.9c-1.1,0-2-0.6-2-1.5s0.9-1.4,0.9-2    c0-0.3-0.3-0.7-0.8-0.7v-0.9c1.1,0,1.8,0.6,1.8,1.5c0,0.9-0.9,1.4-0.9,2C-1539.6,1944.6-1539.3,1944.8-1538.7,1945L-1538.7,1945z    "></path>			<path id="Trazado_277_00000092430790987979635930000017436510477195200691_" class="st2" d="M-1533.7,1937.8    c-2.1,0-3.9-1.6-3.9-3.8c0-0.1,0-0.2,0-0.2c-0.1-2.1,1.5-3.9,3.6-4c0.1,0,0.2,0,0.3,0c2.1,0,3.9,1.6,3.9,3.8c0,0.1,0,0.2,0,0.3    c0.1,2.1-1.5,3.9-3.7,4C-1533.6,1937.8-1533.7,1937.8-1533.7,1937.8z M-1533.7,1931.5c-1.3-0.1-2.3,0.8-2.4,2.1    c0,0.1,0,0.1,0,0.2c0,1.3,0.9,2.2,2.2,2.3c0.1,0,0.1,0,0.2,0c1.3,0.1,2.3-0.8,2.4-2.1c0-0.1,0-0.1,0-0.2c0-1.3-0.9-2.3-2.2-2.3    C-1533.6,1931.5-1533.7,1931.5-1533.7,1931.5z"></path>			<path id="Trazado_278_00000005948599942520060350000015054720383410587316_" class="st2" d="M-1530.8,1928.9l-1.4-0.7    c0.5-0.8,0.8-1.7,0.8-2.6c0-1.1-0.3-1.6-0.8-1.6c-1.5,0-0.1,4.7-3.1,4.7c-1.5,0-2.4-1.3-2.4-3.3c0-1,0.2-2,0.7-2.9l1.4,0.7    c-0.3,0.7-0.6,1.4-0.6,2.2c0,1,0.3,1.6,0.8,1.6c1.5,0,0.1-4.7,3.1-4.7c1.4,0,2.3,1.3,2.3,3.4    C-1529.8,1926.8-1530.2,1928-1530.8,1928.9z"></path>		</g>	</g>	<g class="st4">		<path class="st2" d="M29.8,187.1h1v3.7c-0.9,0.8-2.2,1.3-3.6,1.3c-3,0-5.1-2.1-5.1-4.9s2.2-4.9,5.1-4.9c1.5,0,2.8,0.5,3.6,1.4   l-0.7,0.7c-0.8-0.8-1.7-1.1-2.9-1.1c-2.4,0-4.1,1.7-4.1,4s1.7,4,4.1,4c0.9,0,1.7-0.2,2.5-0.7C29.8,190.5,29.8,187.1,29.8,187.1z"></path>		<path class="st2" d="M39.8,188.6h-6.1c0.1,1.5,1.3,2.5,2.9,2.5c0.9,0,1.7-0.3,2.2-0.9l0.6,0.7c-0.7,0.8-1.6,1.1-2.8,1.1   c-2.3,0-3.8-1.5-3.8-3.7c0-2.2,1.5-3.7,3.6-3.7c2.1,0,3.6,1.5,3.6,3.7C39.8,188.4,39.8,188.5,39.8,188.6z M33.7,187.8h5.2   c-0.1-1.4-1.1-2.4-2.5-2.4C34.9,185.4,33.8,186.4,33.7,187.8z"></path>		<path class="st2" d="M40.7,191l0.5-0.8c0.6,0.5,1.6,0.8,2.5,0.8c1.4,0,2-0.5,2-1.1c0-1.8-4.7-0.3-4.7-3.2c0-1.1,1-2.1,2.9-2.1   c0.9,0,2,0.2,2.5,0.7l-0.5,0.8c-0.7-0.5-1.4-0.6-2.2-0.6c-1.3,0-1.8,0.5-1.8,1.1c0,2,4.7,0.5,4.7,3.2c0,1.3-1.1,2.1-3,2.1   C42.6,192,41.4,191.6,40.7,191z"></path>		<path class="st2" d="M52.3,191.5c-0.3,0.3-0.9,0.5-1.5,0.5c-1.4,0-2.1-0.8-2.1-2.1v-4.4h-1.3v-0.8h1.3v-1.6h1v1.6H52v0.8h-2.2v4.4   c0,0.8,0.5,1.4,1.3,1.4c0.3,0,0.8-0.1,1-0.3L52.3,191.5z"></path>		<path class="st2" d="M53.9,182.4c0-0.3,0.3-0.7,0.7-0.7s0.7,0.3,0.7,0.7s-0.3,0.7-0.7,0.7C54.2,183.1,53.9,182.8,53.9,182.4z    M54.2,184.6h0.9v7.2h-1v-7.2H54.2z"></path>		<path class="st2" d="M57.1,188.3c0-2.2,1.6-3.7,3.7-3.7c2.1,0,3.7,1.5,3.7,3.7s-1.6,3.7-3.7,3.7C58.6,192,57.1,190.5,57.1,188.3z    M63.5,188.3c0-1.7-1.1-2.9-2.6-2.9c-1.5,0-2.8,1.1-2.8,2.9s1.1,2.9,2.8,2.9C62.4,191.2,63.5,190,63.5,188.3z M61.7,181.8h1.4   l-2.2,1.7H60L61.7,181.8z"></path>		<path class="st2" d="M73.1,187.7v4.2h-1v-4.1c0-1.5-0.8-2.3-2.2-2.3c-1.6,0-2.5,0.9-2.5,2.6v3.8h-1v-7.2h0.9v1.4   c0.6-0.9,1.5-1.4,2.8-1.4C72,184.6,73.1,185.6,73.1,187.7z"></path>		<path class="st2" d="M79.6,182.3h1v9.6h-1V182.3z"></path>		<path class="st2" d="M90.2,187.7v4.2h-1v-4.1c0-1.5-0.8-2.3-2.2-2.3c-1.6,0-2.5,0.9-2.5,2.6v3.8h-1v-7.2h0.9v1.4   c0.6-0.9,1.5-1.4,2.8-1.4C89.1,184.6,90.2,185.6,90.2,187.7z"></path>		<path class="st2" d="M91.9,191l0.5-0.8c0.6,0.5,1.6,0.8,2.5,0.8c1.4,0,2-0.5,2-1.1c0-1.8-4.7-0.3-4.7-3.2c0-1.1,1-2.1,2.9-2.1   c0.9,0,2,0.2,2.5,0.7l-0.5,0.8c-0.7-0.5-1.4-0.6-2.2-0.6c-1.3,0-1.8,0.5-1.8,1.1c0,2,4.7,0.5,4.7,3.2c0,1.3-1.1,2.1-3,2.1   C93.7,192,92.5,191.6,91.9,191z"></path>		<path class="st2" d="M103.4,191.5c-0.3,0.3-0.9,0.5-1.5,0.5c-1.4,0-2.1-0.8-2.1-2.1v-4.4h-1.3v-0.8h1.3v-1.6h1v1.6h2.2v0.8h-2.2   v4.4c0,0.8,0.5,1.4,1.3,1.4c0.3,0,0.8-0.1,1-0.3L103.4,191.5z"></path>		<path class="st2" d="M105,182.4c0-0.3,0.3-0.7,0.7-0.7s0.7,0.3,0.7,0.7s-0.3,0.7-0.7,0.7C105.4,183.1,105,182.8,105,182.4z    M105.3,184.6h1v7.2h-1V184.6z"></path>		<path class="st2" d="M112.7,191.5c-0.3,0.3-0.9,0.5-1.5,0.5c-1.4,0-2.1-0.8-2.1-2.1v-4.4h-1.3v-0.8h1.3v-1.6h1v1.6h2.2v0.8h-2.2   v4.4c0,0.8,0.5,1.4,1.3,1.4c0.3,0,0.8-0.1,1-0.3L112.7,191.5z"></path>		<path class="st2" d="M121.1,184.6v7.2h-0.9v-1.4c-0.5,0.9-1.5,1.4-2.6,1.4c-1.8,0-3.1-1-3.1-3.1v-4.2h1v4.1c0,1.5,0.8,2.3,2.2,2.3   c1.5,0,2.4-1,2.4-2.6v-3.8h1V184.6z"></path>		<path class="st2" d="M123.1,188.3c0-2.2,1.6-3.7,3.7-3.7c1.3,0,2.3,0.5,2.9,1.4l-0.7,0.5c-0.5-0.7-1.3-1-2.1-1   c-1.6,0-2.8,1.1-2.8,2.9s1.1,2.9,2.8,2.9c0.8,0,1.6-0.3,2.1-1l0.7,0.5c-0.6,0.9-1.6,1.4-2.9,1.4   C124.7,192,123.1,190.5,123.1,188.3z"></path>		<path class="st2" d="M131.3,182.4c0-0.3,0.3-0.7,0.7-0.7s0.7,0.3,0.7,0.7s-0.3,0.7-0.7,0.7C131.7,183.1,131.3,182.8,131.3,182.4z    M131.5,184.6h1v7.2h-1V184.6z"></path>		<path class="st2" d="M134.5,188.3c0-2.2,1.6-3.7,3.7-3.7s3.7,1.5,3.7,3.7s-1.6,3.7-3.7,3.7S134.5,190.5,134.5,188.3z M140.8,188.3   c0-1.7-1.1-2.9-2.6-2.9s-2.8,1.1-2.8,2.9s1.1,2.9,2.8,2.9C139.7,191.2,140.8,190,140.8,188.3z"></path>		<path class="st2" d="M150.6,187.7v4.2h-1v-4.1c0-1.5-0.8-2.3-2.2-2.3c-1.6,0-2.5,0.9-2.5,2.6v3.8h-1v-7.2h0.9v1.4   c0.6-0.9,1.5-1.4,2.8-1.4C149.3,184.6,150.6,185.6,150.6,187.7z"></path>		<path class="st2" d="M158.6,187.4v4.5h-0.9v-1.1c-0.5,0.7-1.3,1.1-2.5,1.1c-1.6,0-2.6-0.8-2.6-2.1c0-1.1,0.7-2.1,2.8-2.1h2.3v-0.5   c0-1.3-0.7-2-2.1-2c-0.9,0-1.8,0.3-2.4,0.8l-0.5-0.7c0.7-0.6,1.8-1,3-1C157.6,184.6,158.6,185.5,158.6,187.4z M157.7,189.8v-1.1   h-2.3c-1.4,0-1.8,0.6-1.8,1.3c0,0.8,0.7,1.4,1.8,1.4C156.5,191.2,157.3,190.7,157.7,189.8z"></path>		<path class="st2" d="M161.4,181.7h1V192h-1V181.7z"></path>	</g>	<g class="st4">		<path class="st2" d="M23,207.6h3.9c3.1,0,5.2,2,5.2,4.8c0,2.9-2.1,4.8-5.2,4.8H23V207.6z M26.8,216.3c2.5,0,4.2-1.6,4.2-3.9   s-1.6-3.9-4.2-3.9h-2.8v7.9h2.8V216.3z"></path>		<path class="st2" d="M33.5,213.5c0-2.2,1.6-3.7,3.7-3.7s3.7,1.5,3.7,3.7s-1.6,3.7-3.7,3.7C35,217.2,33.5,215.7,33.5,213.5z    M39.8,213.5c0-1.7-1.1-2.9-2.6-2.9s-2.8,1.1-2.8,2.9s1.1,2.9,2.8,2.9S39.8,215.3,39.8,213.5z"></path>		<path class="st2" d="M42.1,213.5c0-2.2,1.6-3.7,3.7-3.7c1.3,0,2.3,0.5,2.9,1.4l-0.7,0.5c-0.5-0.7-1.3-1-2.1-1   c-1.6,0-2.8,1.1-2.8,2.9s1.1,2.9,2.8,2.9c0.8,0,1.6-0.3,2.1-1l0.7,0.5c-0.6,0.9-1.6,1.4-2.9,1.4C43.7,217.2,42.1,215.7,42.1,213.5   z"></path>		<path class="st2" d="M56.8,213.9h-6.1c0.1,1.5,1.3,2.5,2.9,2.5c0.9,0,1.7-0.3,2.2-0.9l0.6,0.7c-0.7,0.8-1.6,1.1-2.8,1.1   c-2.3,0-3.8-1.5-3.8-3.7s1.5-3.7,3.6-3.7c2.1,0,3.6,1.5,3.6,3.7C56.8,213.7,56.8,213.8,56.8,213.9z M50.7,213.1h5.2   c-0.1-1.4-1.1-2.4-2.5-2.4C51.9,210.7,50.8,211.7,50.7,213.1z"></path>		<path class="st2" d="M65.4,213v4.2h-1v-4.1c0-1.5-0.8-2.3-2.2-2.3c-1.6,0-2.5,0.9-2.5,2.6v3.8h-1V210h1v1.4   c0.6-0.9,1.5-1.4,2.8-1.4C64.3,209.9,65.4,210.9,65.4,213z"></path>		<path class="st2" d="M67.4,213.5c0-2.2,1.6-3.7,3.7-3.7c1.3,0,2.3,0.5,2.9,1.4l-0.7,0.5c-0.5-0.7-1.3-1-2.1-1   c-1.6,0-2.8,1.1-2.8,2.9s1.1,2.9,2.8,2.9c0.8,0,1.6-0.3,2.1-1l0.7,0.5c-0.6,0.9-1.6,1.4-2.9,1.4C69,217.2,67.4,215.7,67.4,213.5z"></path>		<path class="st2" d="M75.6,207.7c0-0.3,0.3-0.7,0.7-0.7s0.7,0.3,0.7,0.7s-0.3,0.7-0.7,0.7C76,208.4,75.6,208,75.6,207.7z    M75.9,209.9h1v7.2h-1V209.9z"></path>		<path class="st2" d="M85,212.6v4.5h-0.9V216c-0.5,0.7-1.3,1.1-2.5,1.1c-1.6,0-2.6-0.8-2.6-2.1c0-1.1,0.7-2.1,2.8-2.1H84v-0.5   c0-1.3-0.7-2-2.1-2c-0.9,0-1.8,0.3-2.4,0.8l-0.5-0.7c0.7-0.6,1.8-1,3-1C84,209.9,85,210.8,85,212.6z M84.1,215v-1.1h-2.3   c-1.4,0-1.8,0.6-1.8,1.3c0,0.8,0.7,1.4,1.8,1.4C82.9,216.4,83.7,216,84.1,215z"></path>		<path class="st2" d="M99.1,210.8c0,2.1-1.5,3.3-3.9,3.3h-2.6v3.1h-1v-9.6H95C97.6,207.6,99.1,208.7,99.1,210.8z M98,210.8   c0-1.5-1-2.4-3-2.4h-2.5v4.8H95C97.1,213.2,98,212.4,98,210.8z"></path>		<path class="st2" d="M104.6,209.9v0.9c-0.1,0-0.1,0-0.2,0c-1.5,0-2.4,0.9-2.4,2.6v3.7h-1v-7.2h0.9v1.4   C102.3,210.3,103.2,209.9,104.6,209.9z"></path>		<path class="st2" d="M112.6,213.9h-6.1c0.1,1.5,1.3,2.5,2.9,2.5c0.9,0,1.7-0.3,2.2-0.9l0.6,0.7c-0.7,0.8-1.6,1.1-2.8,1.1   c-2.3,0-3.8-1.5-3.8-3.7s1.5-3.7,3.6-3.7c2.1,0,3.6,1.5,3.6,3.7C112.6,213.7,112.6,213.8,112.6,213.9z M106.5,213.1h5.2   c-0.1-1.4-1.1-2.4-2.5-2.4C107.7,210.7,106.6,211.7,106.5,213.1z"></path>		<path class="st2" d="M121.3,209.9v6.3c0,2.5-1.3,3.7-3.7,3.7c-1.4,0-2.6-0.3-3.3-1.1l0.5-0.7c0.7,0.6,1.7,1,2.9,1   c1.8,0,2.6-0.8,2.6-2.6v-0.9c-0.6,0.9-1.6,1.4-2.9,1.4c-2.1,0-3.7-1.5-3.7-3.6s1.6-3.4,3.7-3.4c1.3,0,2.3,0.5,2.9,1.5V210h1V209.9   z M120.3,213.3c0-1.6-1.1-2.6-2.8-2.6c-1.6,0-2.8,1-2.8,2.6c0,1.6,1.1,2.6,2.8,2.6C119.1,216.1,120.3,214.9,120.3,213.3z"></path>		<path class="st2" d="M127.6,209.9v0.9c-0.1,0-0.1,0-0.2,0c-1.5,0-2.4,0.9-2.4,2.6v3.7h-1v-7.2h0.9v1.4   C125.5,210.3,126.4,209.9,127.6,209.9z"></path>		<path class="st2" d="M134.9,212.6v4.5H134V216c-0.5,0.7-1.3,1.1-2.5,1.1c-1.6,0-2.6-0.8-2.6-2.1c0-1.1,0.7-2.1,2.8-2.1h2.3v-0.5   c0-1.3-0.7-2-2.1-2c-0.9,0-1.8,0.3-2.4,0.8l-0.5-0.7c0.7-0.6,1.8-1,3-1C133.8,209.9,134.9,210.8,134.9,212.6z M134,215v-1.1h-2.3   c-1.4,0-1.8,0.6-1.8,1.3c0,0.8,0.7,1.4,1.8,1.4C132.7,216.4,133.5,216,134,215z"></path>		<path class="st2" d="M144.2,207v10.2h-0.9v-1.4c-0.6,1-1.6,1.5-2.8,1.5c-2.1,0-3.6-1.5-3.6-3.7s1.5-3.7,3.6-3.7   c1.1,0,2.2,0.5,2.8,1.4V207H144.2z M143.3,213.5c0-1.7-1.1-2.9-2.6-2.9s-2.8,1.1-2.8,2.9s1.1,2.9,2.8,2.9   C142.1,216.4,143.3,215.3,143.3,213.5z"></path>		<path class="st2" d="M146.2,213.5c0-2.2,1.6-3.7,3.7-3.7s3.7,1.5,3.7,3.7s-1.6,3.7-3.7,3.7C147.7,217.2,146.2,215.7,146.2,213.5z    M152.6,213.5c0-1.7-1.1-2.9-2.6-2.9s-2.8,1.1-2.8,2.9s1.1,2.9,2.8,2.9C151.4,216.4,152.6,215.3,152.6,213.5z"></path>	</g>	<g class="st4">		<path class="st2" d="M23,232.8h1v9.6h-1V232.8z"></path>		<path class="st2" d="M33.6,238.2v4.2h-1v-4.1c0-1.5-0.8-2.3-2.2-2.3c-1.6,0-2.5,0.9-2.5,2.6v3.8h-1v-7.2h0.9v1.4   c0.6-0.9,1.5-1.4,2.8-1.4C32.4,235.1,33.6,236.2,33.6,238.2z"></path>		<path class="st2" d="M42.2,235.1l-3.2,7.2h-1l-3.2-7.2h1l2.8,6.2l2.8-6.2H42.2z"></path>		<path class="st2" d="M49.7,239.1h-6.1c0.1,1.5,1.3,2.5,2.9,2.5c0.9,0,1.7-0.3,2.2-0.9l0.6,0.7c-0.7,0.8-1.6,1.1-2.8,1.1   c-2.3,0-3.8-1.5-3.8-3.7s1.5-3.7,3.6-3.7c2.1,0,3.6,1.5,3.6,3.7C49.8,238.9,49.7,239,49.7,239.1z M43.7,238.3h5.2   c-0.1-1.4-1.1-2.4-2.5-2.4C44.8,235.9,43.8,237,43.7,238.3z"></path>		<path class="st2" d="M50.7,241.6l0.5-0.8c0.6,0.5,1.6,0.8,2.5,0.8c1.4,0,2-0.5,2-1.1c0-1.8-4.7-0.3-4.7-3.2c0-1.1,1-2.1,2.9-2.1   c0.9,0,2,0.2,2.5,0.7l-0.5,0.8c-0.7-0.5-1.4-0.6-2.2-0.6c-1.3,0-1.8,0.5-1.8,1.1c0,2,4.7,0.5,4.7,3.2c0,1.3-1.1,2.1-3,2.1   C52.4,242.5,51.3,242.1,50.7,241.6z"></path>		<path class="st2" d="M62.3,242c-0.3,0.3-0.9,0.5-1.5,0.5c-1.4,0-2.1-0.8-2.1-2.1V236h-1.4v-0.8h1.3v-1.6h1v1.6h2.2v0.8h-2.2v4.4   c0,0.8,0.5,1.4,1.3,1.4c0.3,0,0.8-0.1,1-0.3L62.3,242z"></path>		<path class="st2" d="M63.8,232.9c0-0.3,0.3-0.7,0.7-0.7s0.7,0.3,0.7,0.7s-0.3,0.7-0.7,0.7C64.1,233.6,63.8,233.3,63.8,232.9z    M64,235.1h1v7.2h-1V235.1z"></path>		<path class="st2" d="M74.5,235.1v6.3c0,2.5-1.3,3.7-3.7,3.7c-1.4,0-2.6-0.3-3.3-1.1l0.5-0.7c0.7,0.6,1.7,1,2.9,1   c1.8,0,2.6-0.8,2.6-2.6v-0.9c-0.6,0.9-1.6,1.4-2.9,1.4c-2.1,0-3.7-1.5-3.7-3.6c0-2.1,1.6-3.4,3.7-3.4c1.3,0,2.3,0.5,2.9,1.5v-1.4   h1V235.1z M73.6,238.6c0-1.6-1.1-2.6-2.8-2.6s-2.8,1-2.8,2.6s1.1,2.6,2.8,2.6C72.4,241.3,73.6,240.2,73.6,238.6z"></path>		<path class="st2" d="M82.7,237.9v4.5h-0.9v-1.1c-0.5,0.7-1.3,1.1-2.5,1.1c-1.6,0-2.6-0.8-2.6-2.1c0-1.1,0.7-2.1,2.8-2.1h2.3v-0.5   c0-1.3-0.7-2-2.1-2c-0.9,0-1.8,0.3-2.4,0.8l-0.5-0.7c0.7-0.6,1.8-1,3-1C81.6,235.1,82.7,236,82.7,237.9z M81.7,240.3v-1.1h-2.3   c-1.4,0-1.8,0.6-1.8,1.3c0,0.8,0.7,1.4,1.8,1.4C80.6,241.7,81.4,241.2,81.7,240.3z"></path>		<path class="st2" d="M84.7,238.8c0-2.2,1.6-3.7,3.7-3.7c1.3,0,2.3,0.5,2.9,1.4l-0.7,0.5c-0.5-0.7-1.3-1-2.1-1   c-1.6,0-2.8,1.1-2.8,2.9s1.1,2.9,2.8,2.9c0.8,0,1.6-0.3,2.1-1l0.7,0.5c-0.6,0.9-1.6,1.4-2.9,1.4C86.2,242.5,84.7,241,84.7,238.8z"></path>		<path class="st2" d="M93,232.9c0-0.3,0.3-0.7,0.7-0.7s0.7,0.3,0.7,0.7s-0.3,0.7-0.7,0.7C93.2,233.6,93,233.3,93,232.9z    M93.2,235.1h1v7.2h-1V235.1z"></path>		<path class="st2" d="M96.1,238.8c0-2.2,1.6-3.7,3.7-3.7c2.1,0,3.7,1.5,3.7,3.7s-1.6,3.7-3.7,3.7C97.7,242.5,96.1,241,96.1,238.8z    M102.5,238.8c0-1.7-1.1-2.9-2.6-2.9c-1.5,0-2.8,1.1-2.8,2.9s1.1,2.9,2.8,2.9C101.5,241.7,102.5,240.5,102.5,238.8z M100.8,232.4   h1.3l-2.2,1.7h-0.9L100.8,232.4z"></path>		<path class="st2" d="M112.1,238.2v4.2h-1v-4.1c0-1.5-0.8-2.3-2.2-2.3c-1.6,0-2.5,0.9-2.5,2.6v3.8h-1v-7.2h0.9v1.4   c0.6-0.9,1.5-1.4,2.8-1.4C111,235.1,112.1,236.2,112.1,238.2z"></path>	</g>	<g class="st4">		<path class="st2" d="M30.5,261.3c0,2.1-1.5,3.3-3.9,3.3h-2.5v3.1h-1v-9.6h3.6C29.1,258.1,30.5,259.2,30.5,261.3z M29.6,261.3   c0-1.5-1-2.4-3-2.4h-2.5v4.8h2.5C28.5,263.7,29.6,262.9,29.6,261.3z"></path>		<path class="st2" d="M31.8,264.1c0-2.2,1.6-3.7,3.7-3.7c2.1,0,3.7,1.5,3.7,3.7s-1.6,3.7-3.7,3.7C33.4,267.7,31.8,266.3,31.8,264.1   z M38.2,264.1c0-1.7-1.1-2.9-2.6-2.9c-1.5,0-2.8,1.1-2.8,2.9s1.1,2.9,2.8,2.9C37.2,266.9,38.2,265.8,38.2,264.1z"></path>		<path class="st2" d="M40.1,266.8l0.5-0.8c0.6,0.5,1.6,0.8,2.5,0.8c1.4,0,2-0.5,2-1.1c0-1.8-4.7-0.3-4.7-3.2c0-1.1,1-2.1,2.9-2.1   c0.9,0,2,0.2,2.5,0.7l-0.5,0.8c-0.7-0.5-1.4-0.6-2.2-0.6c-1.3,0-1.8,0.5-1.8,1.1c0,2,4.7,0.5,4.7,3.2c0,1.3-1.1,2.1-3,2.1   C41.9,267.7,40.7,267.4,40.1,266.8z"></path>		<path class="st2" d="M51.7,267.3c-0.3,0.3-0.9,0.5-1.5,0.5c-1.4,0-2.1-0.8-2.1-2.1v-4.4h-1.3v-0.8h1.3v-1.6h1v1.6h2.2v0.8h-2.2   v4.4c0,0.8,0.5,1.4,1.3,1.4c0.3,0,0.8-0.1,1-0.3L51.7,267.3z"></path>		<path class="st2" d="M59.9,260.4v6.3c0,2.5-1.3,3.7-3.7,3.7c-1.4,0-2.6-0.3-3.3-1.1l0.5-0.7c0.7,0.6,1.7,1,2.9,1   c1.8,0,2.6-0.8,2.6-2.6V266c-0.6,0.9-1.6,1.4-2.9,1.4c-2.1,0-3.7-1.5-3.7-3.6c0-2.1,1.6-3.4,3.7-3.4c1.3,0,2.3,0.5,2.9,1.5v-1.4h1   V260.4z M59,263.8c0-1.6-1.1-2.6-2.8-2.6c-1.6,0-2.8,1-2.8,2.6c0,1.6,1.1,2.6,2.8,2.6C57.8,266.6,59,265.4,59,263.8z"></path>		<path class="st2" d="M66.3,260.4v0.9c-0.1,0-0.1,0-0.2,0c-1.5,0-2.4,0.9-2.4,2.6v3.7h-1v-7.2h0.9v1.4   C64,260.9,64.9,260.4,66.3,260.4z"></path>		<path class="st2" d="M73.6,263.1v4.5h-0.9v-1.1c-0.5,0.7-1.3,1.1-2.5,1.1c-1.6,0-2.6-0.8-2.6-2.1c0-1.1,0.7-2.1,2.8-2.1h2.3V263   c0-1.3-0.7-2-2.1-2c-0.9,0-1.8,0.3-2.4,0.8l-0.5-0.7c0.7-0.6,1.8-1,3-1C72.5,260.4,73.6,261.3,73.6,263.1z M72.5,265.6v-1.1h-2.3   c-1.4,0-1.8,0.6-1.8,1.3c0,0.8,0.7,1.4,1.8,1.4C71.4,266.9,72.2,266.5,72.5,265.6z"></path>		<path class="st2" d="M82.9,257.5v10.2h-0.9v-1.4c-0.6,1-1.6,1.5-2.8,1.5c-2.1,0-3.6-1.5-3.6-3.7s1.5-3.7,3.6-3.7   c1.1,0,2.2,0.5,2.8,1.4v-4.4L82.9,257.5L82.9,257.5z M81.8,264.1c0-1.7-1.1-2.9-2.6-2.9c-1.5,0-2.8,1.1-2.8,2.9s1.1,2.9,2.8,2.9   C80.7,266.9,81.8,265.8,81.8,264.1z"></path>		<path class="st2" d="M84.8,264.1c0-2.2,1.6-3.7,3.7-3.7c2.1,0,3.7,1.5,3.7,3.7s-1.6,3.7-3.7,3.7C86.4,267.7,84.8,266.3,84.8,264.1   z M91.2,264.1c0-1.7-1.1-2.9-2.6-2.9c-1.5,0-2.8,1.1-2.8,2.9s1.1,2.9,2.8,2.9C90.2,266.9,91.2,265.8,91.2,264.1z"></path>	</g>	<g class="st4">		<path class="st2" d="M31.1,283.4l-4.2,9.6h-1l-4.2-9.6h1.1l3.7,8.4l3.7-8.4H31.1z"></path>		<path class="st2" d="M32,283.5c0-0.3,0.3-0.7,0.7-0.7s0.7,0.3,0.7,0.7c0,0.3-0.3,0.7-0.7,0.7C32.2,284.2,32,283.8,32,283.5z    M32.2,285.7h1v7.2h-1V285.7z"></path>		<path class="st2" d="M42.6,288.8v4.2h-1v-4.1c0-1.5-0.8-2.3-2.2-2.3c-1.6,0-2.5,0.9-2.5,2.6v3.8h-1v-7.2h0.9v1.4   c0.6-0.9,1.5-1.4,2.8-1.4C41.3,285.7,42.6,286.7,42.6,288.8z"></path>		<path class="st2" d="M44.5,289.3c0-2.2,1.6-3.7,3.7-3.7c1.3,0,2.3,0.5,2.9,1.4l-0.7,0.5c-0.5-0.7-1.3-1-2.1-1   c-1.6,0-2.8,1.1-2.8,2.9s1.1,2.9,2.8,2.9c0.8,0,1.6-0.3,2.1-1l0.7,0.5c-0.6,0.9-1.6,1.4-2.9,1.4C46.1,293,44.5,291.5,44.5,289.3z"></path>		<path class="st2" d="M59.5,285.7v7.2h-0.9v-1.4c-0.5,0.9-1.5,1.4-2.6,1.4c-1.8,0-3.1-1-3.1-3.1v-4.2h1v4.1c0,1.5,0.8,2.3,2.2,2.3   c1.5,0,2.4-1,2.4-2.6v-3.8h1V285.7z"></path>		<path class="st2" d="M62.3,282.8h1V293h-1V282.8z"></path>		<path class="st2" d="M71.5,288.4v4.5h-0.9v-1.1c-0.5,0.7-1.3,1.1-2.5,1.1c-1.6,0-2.6-0.8-2.6-2.1c0-1.1,0.7-2.1,2.8-2.1h2.3v-0.5   c0-1.3-0.7-2-2.1-2c-0.9,0-1.8,0.3-2.4,0.8l-0.5-0.7c0.7-0.6,1.8-1,3-1C70.3,285.7,71.5,286.6,71.5,288.4z M70.5,290.8v-1.1h-2.3   c-1.4,0-1.8,0.6-1.8,1.3c0,0.8,0.7,1.4,1.8,1.4C69.3,292.2,70.1,291.7,70.5,290.8z"></path>		<path class="st2" d="M73.4,289.3c0-2.2,1.6-3.7,3.7-3.7c1.3,0,2.3,0.5,2.9,1.4l-0.7,0.5c-0.5-0.7-1.3-1-2.1-1   c-1.6,0-2.8,1.1-2.8,2.9s1.1,2.9,2.8,2.9c0.8,0,1.6-0.3,2.1-1l0.7,0.5c-0.6,0.9-1.6,1.4-2.9,1.4C74.9,293,73.4,291.5,73.4,289.3z"></path>		<path class="st2" d="M81.7,283.5c0-0.3,0.3-0.7,0.7-0.7s0.7,0.3,0.7,0.7c0,0.3-0.3,0.7-0.7,0.7C81.9,284.2,81.7,283.8,81.7,283.5z    M81.9,285.7h1v7.2h-1V285.7z"></path>		<path class="st2" d="M84.8,289.3c0-2.2,1.6-3.7,3.7-3.7c2.1,0,3.7,1.5,3.7,3.7s-1.6,3.7-3.7,3.7C86.4,293,84.8,291.5,84.8,289.3z    M91.2,289.3c0-1.7-1.1-2.9-2.6-2.9c-1.5,0-2.8,1.1-2.8,2.9s1.1,2.9,2.8,2.9C90.2,292.2,91.2,291.1,91.2,289.3z M89.5,282.9h1.3   l-2.2,1.7h-0.9L89.5,282.9z"></path>		<path class="st2" d="M100.9,288.8v4.2h-1v-4.1c0-1.5-0.8-2.3-2.2-2.3c-1.6,0-2.5,0.9-2.5,2.6v3.8h-1v-7.2H95v1.4   c0.6-0.9,1.5-1.4,2.8-1.4C99.7,285.7,100.9,286.7,100.9,288.8z"></path>		<path class="st2" d="M106.4,289.3c0-2.2,1.6-3.7,3.7-3.7c1.3,0,2.3,0.5,2.9,1.4l-0.7,0.5c-0.5-0.7-1.3-1-2.1-1   c-1.6,0-2.8,1.1-2.8,2.9s1.1,2.9,2.8,2.9c0.8,0,1.6-0.3,2.1-1l0.7,0.5c-0.6,0.9-1.6,1.4-2.9,1.4C108,293,106.4,291.5,106.4,289.3z   "></path>		<path class="st2" d="M114.1,289.3c0-2.2,1.6-3.7,3.7-3.7c2.1,0,3.7,1.5,3.7,3.7s-1.6,3.7-3.7,3.7S114.1,291.5,114.1,289.3z    M120.4,289.3c0-1.7-1.1-2.9-2.6-2.9c-1.5,0-2.8,1.1-2.8,2.9s1.1,2.9,2.8,2.9C119.4,292.2,120.4,291.1,120.4,289.3z"></path>		<path class="st2" d="M130.1,288.8v4.2h-1v-4.1c0-1.5-0.8-2.3-2.2-2.3c-1.6,0-2.5,0.9-2.5,2.6v3.8h-1v-7.2h0.9v1.4   c0.6-0.9,1.5-1.4,2.8-1.4C128.9,285.7,130.1,286.7,130.1,288.8z"></path>		<path class="st2" d="M142.7,289.7h-6.1c0.1,1.5,1.3,2.5,2.9,2.5c0.9,0,1.7-0.3,2.2-0.9l0.6,0.7c-0.7,0.8-1.6,1.1-2.8,1.1   c-2.3,0-3.8-1.5-3.8-3.7s1.5-3.7,3.6-3.7s3.6,1.5,3.6,3.7C142.7,289.4,142.7,289.6,142.7,289.7z M136.6,288.9h5.2   c-0.1-1.4-1.1-2.4-2.5-2.4C137.7,286.5,136.7,287.5,136.6,288.9z"></path>		<path class="st2" d="M144.8,282.8h1V293h-1V282.8z"></path>		<path class="st2" d="M162.2,283.4v9.6h-1v-7.7l-3.8,6.4h-0.5l-3.8-6.4v7.7h-1v-9.6h0.8l4.1,7.1l4.1-7.1H162.2z"></path>		<path class="st2" d="M171.5,289.7h-6.1c0.1,1.5,1.3,2.5,2.9,2.5c0.9,0,1.7-0.3,2.2-0.9l0.6,0.7c-0.7,0.8-1.6,1.1-2.8,1.1   c-2.3,0-3.8-1.5-3.8-3.7s1.5-3.7,3.6-3.7c2.1,0,3.6,1.5,3.6,3.7C171.5,289.4,171.5,289.6,171.5,289.7z M165.4,288.9h5.2   c-0.1-1.4-1.1-2.4-2.5-2.4C166.6,286.5,165.5,287.5,165.4,288.9z"></path>		<path class="st2" d="M180.1,282.8V293h-0.9v-1.4c-0.6,1-1.6,1.5-2.8,1.5c-2.1,0-3.6-1.5-3.6-3.7c0-2.2,1.5-3.7,3.6-3.7   c1.1,0,2.2,0.5,2.8,1.4v-4.4L180.1,282.8L180.1,282.8z M179.2,289.3c0-1.7-1.1-2.9-2.6-2.9s-2.8,1.1-2.8,2.9s1.1,2.9,2.8,2.9   C177.9,292.2,179.2,291.1,179.2,289.3z"></path>		<path class="st2" d="M182.6,283.5c0-0.3,0.3-0.7,0.7-0.7c0.3,0,0.7,0.3,0.7,0.7c0,0.3-0.3,0.7-0.7,0.7   C183,284.2,182.6,283.8,182.6,283.5z M182.9,285.7h1v7.2h-1V285.7z"></path>		<path class="st2" d="M185.9,289.3c0-2.2,1.6-3.7,3.7-3.7c2.1,0,3.7,1.5,3.7,3.7s-1.6,3.7-3.7,3.7   C187.5,293,185.9,291.5,185.9,289.3z M192.2,289.3c0-1.7-1.1-2.9-2.6-2.9c-1.5,0-2.8,1.1-2.8,2.9s1.1,2.9,2.8,2.9   C191,292.2,192.2,291.1,192.2,289.3z"></path>	</g>	<g>		<path class="st0" d="M146.7,314.8c0-2.2-1.6-3.4-4.1-3.4h-4v9.6h1.8v-2.8h2.2c0.1,0,0.2,0,0.3,0l2,2.9h2l-2.2-3.2   C145.9,317.4,146.7,316.3,146.7,314.8z"></path>		<path class="st0" d="M95.8,312.9c1,0,1.8,0.3,2.5,1.1l1.1-1c-0.9-1-2.3-1.6-3.8-1.6c-3,0-5.2,2.1-5.2,4.9s2.2,4.9,5.2,4.9   c1.6,0,3-0.6,3.8-1.6l-1.1-1.1c-0.7,0.8-1.6,1.1-2.5,1.1c-2,0-3.4-1.4-3.4-3.4C92.4,314.2,93.9,312.9,95.8,312.9z"></path>		<rect x="86.9" y="311.4" class="st0" width="1.8" height="9.6"></rect>		<path class="st0" d="M79.8,311.4h-4.2v9.6h4.2c3.1,0,5.3-2,5.3-4.8S82.9,311.4,79.8,311.4z"></path>		<rect x="101.3" y="311.4" class="st0" width="1.8" height="9.6"></rect>		<polygon class="st0" points="107.5,316.9 112.1,316.9 112.1,315.4 107.5,315.4 107.5,312.9 112.7,312.9 112.7,311.4 105.7,311.4    105.7,321 112.9,321 112.9,319.5 107.5,319.5   "></polygon>		<path class="st0" d="M135,316c0.7-0.3,1.3-1.1,1.3-2.1c0-1.5-1.3-2.5-3.6-2.5h-4.5v9.6h4.8c2.5,0,3.8-0.9,3.8-2.6   C136.7,317.1,136,316.3,135,316z"></path>		<polygon class="st0" points="124,311.4 120.3,317.8 116.4,311.4 114.9,311.4 114.9,321 116.6,321 116.6,314.7 119.8,320    120.6,320 123.7,314.6 123.9,321 125.5,321 125.5,311.4   "></polygon>		<polygon class="st0" points="150.5,316.9 155.1,316.9 155.1,315.4 150.5,315.4 150.5,312.9 155.7,312.9 155.7,311.4 148.7,311.4    148.7,321 155.9,321 155.9,319.5 150.5,319.5   "></polygon>		<polygon class="st0" points="30.4,315.4 25.3,315.4 25.3,311.4 23.6,311.4 23.6,321 25.3,321 25.3,316.9 30.4,316.9 30.4,321    32.1,321 32.1,311.4 30.4,311.4   "></polygon>		<polygon class="st0" points="64.4,311.4 60,321 61.8,321 62.9,318.8 67.7,318.8 68.6,321 70.5,321 66.1,311.4   "></polygon>		<path class="st0" d="M46.2,314c0-0.7,0.6-1.3,2.1-1.3c0.8,0,1.8,0.2,2.6,0.8l0.6-1.4c-0.8-0.6-2.1-0.8-3.2-0.8   c-2.6,0-3.9,1.4-3.9,2.9c0,3.6,5.7,2.2,5.7,4.2c0,0.7-0.7,1.3-2.2,1.3c-1.1,0-2.4-0.5-3.2-1l-0.6,1.4c0.8,0.7,2.3,1.1,3.8,1.1   c2.6,0,3.9-1.4,3.9-2.9C52,314.8,46.2,316.1,46.2,314z"></path>		<polygon class="st0" points="37.7,311.4 33.4,321 35.2,321 36.1,318.8 40.9,318.8 42,321 43.8,321 39.5,311.4   "></polygon>		<polygon class="st0" points="60.6,311.4 52.3,311.4 52.3,312.9 55.5,312.9 55.5,321 57.4,321 57.4,312.9 60.6,312.9   "></polygon>		<path class="st2" d="M189.3,315.3c0.6,0,1-0.1,1.4-0.3c0.3-0.2,0.5-0.6,0.5-1s-0.1-0.8-0.5-1s-0.8-0.3-1.4-0.3s-1,0.1-1.3,0.3   c-0.3,0.2-0.5,0.6-0.5,1s0.1,0.8,0.5,1C188.3,315.2,188.7,315.3,189.3,315.3z"></path>		<path class="st2" d="M173.5,313.1c-0.3-0.2-0.7-0.3-1.1-0.3s-0.8,0.1-1.1,0.3c-0.3,0.2-0.6,0.6-0.8,1.1c-0.2,0.5-0.3,1.1-0.3,2   c0,0.8,0.1,1.4,0.3,2c0.2,0.5,0.5,0.9,0.8,1.1s0.7,0.3,1.1,0.3s0.8-0.1,1.1-0.3c0.3-0.2,0.6-0.6,0.8-1.1c0.2-0.5,0.2-1.1,0.2-2   c0-0.8-0.1-1.4-0.2-2C174,313.8,173.7,313.3,173.5,313.1z"></path>		<path class="st2" d="M192.4,307.2H23.6c-2.5,0-4.6,2.1-4.6,4.6v9.2c0,2.5,2.1,4.6,4.6,4.6h168.8c2.5,0,4.6-2.1,4.6-4.6v-9.2   C197,309.3,194.9,307.2,192.4,307.2z M32.1,321h-1.8v-4.1h-4.9v4.1h-1.8v-9.6h1.8v4h4.9v-4h1.8V321z M42,321l-0.9-2.2h-4.8   l-0.9,2.2h-1.8l4.4-9.6h1.7l4.4,9.6H42z M48.1,321.1c-1.5,0-3-0.5-3.8-1.1l0.6-1.4c0.8,0.6,2,1,3.2,1c1.5,0,2.2-0.6,2.2-1.3   c0-2.1-5.7-0.7-5.7-4.2c0-1.6,1.3-2.9,3.9-2.9c1.1,0,2.4,0.3,3.2,0.8l-0.6,1.4c-0.9-0.5-1.8-0.8-2.6-0.8c-1.5,0-2.1,0.6-2.1,1.3   c0,2.1,5.7,0.7,5.7,4.2C52,319.9,50.7,321.1,48.1,321.1z M57.4,321h-1.8v-8.2h-3.2v-1.5h8.2v1.5h-3.1V321z M68.6,321l-0.9-2.2   h-4.8L62,321h-1.8l4.4-9.6h1.7l4.4,9.6H68.6z M79.8,321h-4.2v-9.6h4.2c3.1,0,5.3,2,5.3,4.8C85,319.1,82.9,321,79.8,321z M88.7,321   h-1.8v-9.6h1.8V321z M95.8,319.6c1,0,1.8-0.3,2.5-1.1l1.1,1.1c-0.9,1-2.3,1.6-3.8,1.6c-3,0-5.2-2.1-5.2-4.9s2.2-4.9,5.2-4.9   c1.6,0,2.9,0.6,3.8,1.6l-1.1,1c-0.7-0.8-1.6-1.1-2.5-1.1c-2,0-3.4,1.4-3.4,3.4C92.4,318.2,93.9,319.6,95.8,319.6z M103.1,321h-1.8   v-9.6h1.8V321z M112.9,321h-7.2v-9.6h7v1.5h-5.3v2.5h4.7v1.5h-4.7v2.6h5.4v1.5H112.9z M123.9,321v-6.4l-3.2,5.3h-0.8l-3.2-5.2v6.3   h-1.7v-9.6h1.5l3.8,6.4l3.8-6.4h1.5v9.6H123.9z M132.9,321h-4.8v-9.6h4.5c2.3,0,3.6,1,3.6,2.5c0,1-0.5,1.7-1.3,2.1   c1,0.3,1.7,1.1,1.7,2.4C136.7,320.1,135.3,321,132.9,321z M144.9,321l-2-2.9c-0.1,0-0.2,0-0.3,0h-2.2v2.8h-1.8v-9.6h4   c2.5,0,4.1,1.3,4.1,3.4c0,1.5-0.7,2.5-2.1,3.1l2.2,3.2H144.9z M155.9,321h-7.2v-9.6h7v1.5h-5.3v2.5h4.7v1.5h-4.7v2.6h5.4v1.5   H155.9z M167.3,320.9h-7.1v-1.1l3.8-3.7c0.3-0.3,0.6-0.6,0.7-0.8c0.1-0.2,0.2-0.5,0.3-0.7c0-0.2,0.1-0.3,0.1-0.6   c0-0.5-0.1-0.8-0.5-1c-0.3-0.2-0.8-0.3-1.4-0.3c-0.5,0-0.9,0.1-1.3,0.2s-0.7,0.5-1,0.7l-1.3-0.9c0.3-0.5,0.9-0.9,1.5-1.1   c0.7-0.2,1.4-0.5,2.2-0.5c0.7,0,1.3,0.1,1.8,0.3c0.5,0.2,0.9,0.6,1.1,0.9c0.2,0.5,0.5,0.9,0.5,1.5c0,0.3,0,0.7-0.1,0.9   c-0.1,0.3-0.2,0.6-0.5,0.9s-0.6,0.7-1,1.1l-2.5,2.4h4.6L167.3,320.9L167.3,320.9z M175.8,318.8c-0.3,0.7-0.8,1.3-1.4,1.7   c-0.6,0.3-1.3,0.6-2.1,0.6s-1.5-0.2-2.1-0.6c-0.6-0.3-1-0.9-1.4-1.7c-0.3-0.7-0.6-1.6-0.6-2.6s0.2-2,0.6-2.6   c0.3-0.7,0.8-1.3,1.4-1.7c0.6-0.3,1.3-0.6,2.1-0.6s1.5,0.2,2.1,0.6s1,0.9,1.4,1.7c0.3,0.7,0.6,1.6,0.6,2.6   C176.2,317.2,176.1,318.2,175.8,318.8z M184.4,320.9h-7.1v-1.1l3.8-3.7c0.3-0.3,0.6-0.6,0.7-0.8c0.1-0.2,0.2-0.5,0.3-0.7   c0-0.2,0.1-0.3,0.1-0.6c0-0.5-0.1-0.8-0.5-1c-0.3-0.2-0.8-0.3-1.4-0.3c-0.5,0-0.9,0.1-1.3,0.2c-0.3,0.1-0.7,0.5-1,0.7l-1.3-0.9   c0.3-0.5,0.9-0.9,1.5-1.1c0.7-0.2,1.4-0.5,2.2-0.5c0.7,0,1.3,0.1,1.8,0.3c0.5,0.2,0.9,0.6,1.1,0.9c0.2,0.5,0.5,0.9,0.5,1.5   c0,0.3,0,0.7-0.1,0.9c-0.1,0.3-0.2,0.6-0.5,0.9s-0.6,0.7-1,1.1l-2.5,2.4h4.6L184.4,320.9L184.4,320.9z M192.8,319.8   c-0.3,0.5-0.8,0.8-1.4,1c-0.6,0.2-1.3,0.3-2.1,0.3s-1.5-0.1-2.1-0.3c-0.6-0.2-1-0.6-1.4-1s-0.5-0.9-0.5-1.5s0.1-1,0.5-1.5   c0.2-0.3,0.7-0.6,1.1-0.8c-0.3-0.2-0.6-0.3-0.8-0.7c-0.3-0.3-0.5-0.8-0.5-1.4s0.1-1,0.5-1.4c0.3-0.3,0.7-0.7,1.3-0.9   c0.6-0.2,1.1-0.3,1.8-0.3s1.4,0.1,1.8,0.3c0.6,0.2,0.9,0.6,1.3,0.9s0.5,0.9,0.5,1.4c0,0.6-0.1,1-0.5,1.4c-0.2,0.2-0.5,0.5-0.8,0.7   c0.5,0.2,0.8,0.5,1.1,0.8c0.3,0.5,0.5,0.9,0.5,1.5C193.2,318.8,193.1,319.3,192.8,319.8z"></path>		<path class="st2" d="M190.9,317c-0.3-0.2-0.9-0.5-1.6-0.5c-0.7,0-1.1,0.1-1.6,0.5c-0.3,0.2-0.6,0.7-0.6,1.1s0.2,0.8,0.6,1.1   c0.3,0.2,0.9,0.5,1.6,0.5c0.7,0,1.1-0.1,1.6-0.5c0.3-0.2,0.6-0.7,0.6-1.1S191.3,317.4,190.9,317z"></path>	</g></g></svg>