<?xml version="1.0" encoding="utf-8"?>
<!-- Generator: Adobe Illustrator 25.2.3, SVG Export Plug-In . SVG Version: 6.00 Build 0)  -->
<svg version="1.1" id="Layer_1" xmlns="http://www.w3.org/2000/svg" xmlns:xlink="http://www.w3.org/1999/xlink" x="0px" y="0px"
	 viewBox="0 0 307.94 75.4" style="enable-background:new 0 0 307.94 75.4;" xml:space="preserve">
<style type="text/css">
	.st0{fill:#FFFFFF;}
</style>
<g>
	<path class="st0" d="M59.69,22.51v44.05c-3.77,2.14-12.44,5.61-24.07,5.61c-16.62,0-23.25-7.75-23.25-19.68V22.51
		c2.55-0.41,5.1-0.61,7.65-0.61c2.45,0,5.1,0.2,7.55,0.61v26.62c0,6.63,1.94,9.79,9.28,9.79c2.96,0,5.51-0.51,7.65-1.53V22.51
		c2.55-0.41,5.1-0.61,7.55-0.61C54.59,21.89,57.14,22.1,59.69,22.51z"/>
	<path class="st0" d="M67.44,66.05c0.82-4.79,3.06-8.36,6.02-10.2c3.57,2.24,8.57,4.89,15.91,4.89c4.69,0,6.32-1.73,6.32-3.88
		c0-2.55-2.55-3.88-10.5-5.3c-7.95-1.63-16.32-4.49-16.32-15.19c0-9.99,9.18-15.7,21.31-15.7c10.1,0,16.32,2.35,19.68,4.49
		c-0.61,4.9-2.55,8.46-5.3,10.61c-3.26-1.84-8.67-3.57-14.17-3.57c-4.79,0-7.04,1.02-7.04,3.47c0,2.45,2.14,3.37,9.79,4.79
		c9.59,1.63,17.64,4.79,17.64,15.3c0,10.1-7.75,16.42-21.92,16.42C77.94,72.17,70.6,68.7,67.44,66.05z"/>
	<path class="st0" d="M197.77,39.94v30.49c-2.55,0.41-5.1,0.61-7.65,0.61c-2.55,0-5.1-0.2-7.65-0.61V43.31
		c0-6.02-2.86-9.18-8.57-9.18c-3.88,0-6.32,1.43-8.16,2.75c0.1,1.02,0.2,2.04,0.2,3.06v30.49c-2.55,0.41-5.1,0.61-7.65,0.61
		c-2.55,0-5.1-0.2-7.55-0.61V43.31c0-6.02-2.96-9.18-8.67-9.18c-3.37,0-6.02,0.92-7.85,2.04v34.26c-2.55,0.41-5.1,0.61-7.65,0.61
		c-2.55,0-5-0.2-7.55-0.61V28.42c3.47-2.96,12.54-8.06,24.47-8.06c6.83,0,12.13,1.73,15.81,4.59c3.88-2.45,9.48-4.59,16.01-4.59
		C190.53,20.37,197.77,28.62,197.77,39.94z"/>
	<path class="st0" d="M206.13,62.68c0-5.3,4.38-9.69,9.59-9.69c5.3,0,9.69,4.38,9.69,9.69c0,5.2-4.38,9.69-9.69,9.69
		C210.52,72.37,206.13,67.89,206.13,62.68z"/>
	<path class="st0" d="M229.38,46.37c0-15.91,11.22-26,26.21-26c7.44,0,13.97,2.85,16.83,5.4c-0.92,4.08-4.08,8.36-7.85,10.71
		c-2.04-1.84-4.89-3.37-8.57-3.37c-7.44,0-11.32,5.61-11.32,13.05c0,7.24,3.57,13.26,11.42,13.26c4.69,0,7.24-1.63,9.38-3.57
		c3.77,1.84,6.53,5.4,7.75,9.99c-3.47,3.16-9.38,6.32-17.23,6.32C239.58,72.17,229.38,62.68,229.38,46.37z"/>
	<path class="st0" d="M280.27,70.43V3.64c2.34-0.41,4.89-0.61,7.44-0.61c2.55,0,5.2,0.2,7.85,0.61v66.79
		c-2.35,0.41-5,0.61-7.55,0.61C285.47,71.05,282.92,70.84,280.27,70.43z"/>
</g>
</svg>
